<svg xmlns="http://www.w3.org/2000/svg" width="22" height="20" fill="none">
  <defs/>
  <path fill="#143656" fill-rule="evenodd" d="M11 2a3.556 3.556 0 00-3.389 2.48L6.811 7h8.378l-.8-2.52A3.556 3.556 0 0011 2zm6.287 5l-.992-3.125a5.555 5.555 0 00-10.59 0L4.713 7H2.348A2 2 0 00.434 9.58l1.124 3.71 1.388 4.58A3 3 0 005.817 20h10.366a3 3 0 002.87-2.13l1.389-4.58 1.124-3.71A2 2 0 0019.652 7h-2.365zM5.444 9H2.348l.909 3h3.78l-.41-3H5.444zm3.202 0l.409 3h3.89l.41-3h-4.71.001zm6.727 0l-.41 3h3.78l.909-3h-4.279zm2.764 5H14.69l-.545 4h2.037a1 1 0 00.957-.71l.997-3.29h.001zm-6.01 4l.545-4H9.327l.546 4h2.254zm-4.273 0l-.545-4H3.863l.997 3.29a1 1 0 00.957.71h2.037z" clip-rule="evenodd"/>
</svg>