<svg width="24" height="24" viewBox="0 0 24 24" fill="none" xmlns="http://www.w3.org/2000/svg">
<path fill-rule="evenodd" clip-rule="evenodd" d="M16 5.99996C15.2043 5.99996 14.4413 6.31603 13.8787 6.87864C13.3161 7.44125 13 8.20431 13 8.99996C13 9.79561 13.3161 10.5587 13.8787 11.1213C14.4413 11.6839 15.2043 12 16 12C16.7956 12 17.5587 11.6839 18.1213 11.1213C18.6839 10.5587 19 9.79561 19 8.99996C19 8.20431 18.6839 7.44125 18.1213 6.87864C17.5587 6.31603 16.7956 5.99996 16 5.99996ZM11 8.99996C11 8.18492 11.1993 7.38223 11.5804 6.6618C11.9615 5.94137 12.513 5.32503 13.1868 4.86646C13.8606 4.40789 14.6363 4.121 15.4464 4.03075C16.2564 3.9405 17.0762 4.04964 17.8344 4.34866C18.5926 4.64769 19.2662 5.12753 19.7966 5.74641C20.327 6.36529 20.698 7.10444 20.8774 7.89949C21.0568 8.69455 21.0391 9.5214 20.8259 10.3081C20.6126 11.0947 20.2103 11.8173 19.654 12.413C21.3505 12.9648 22.8171 14.0617 23.826 15.533C23.9667 15.7521 24.0164 16.0176 23.9644 16.2728C23.9124 16.528 23.763 16.7529 23.5477 16.8996C23.3325 17.0463 23.0686 17.1032 22.812 17.0583C22.5554 17.0133 22.3265 16.8701 22.174 16.659C21.198 15.227 19.418 14 17 14C13.166 14 11 17.074 11 19C11 19.2652 10.8946 19.5195 10.7071 19.7071C10.5196 19.8946 10.2652 20 10 20C9.73478 20 9.48043 19.8946 9.29289 19.7071C9.10536 19.5195 9 19.2652 9 19C9 18.308 9.158 17.57 9.46 16.843C9.38147 16.7921 9.31045 16.7305 9.249 16.66C8.428 15.726 7.154 15 5.5 15C3.846 15 2.572 15.726 1.751 16.66C1.57323 16.8488 1.32905 16.9612 1.06999 16.9734C0.810932 16.9856 0.557261 16.8967 0.362511 16.7254C0.16776 16.5542 0.0471636 16.3139 0.0261716 16.0554C0.00517957 15.7969 0.0854339 15.5404 0.249998 15.34C0.840515 14.6679 1.55658 14.1176 2.358 13.72C1.71771 13.0951 1.27822 12.2935 1.09567 11.4176C0.913116 10.5418 0.995791 9.63139 1.33313 8.80274C1.67047 7.97409 2.24717 7.26481 2.98955 6.76548C3.73194 6.26616 4.60631 5.99947 5.501 5.99947C6.39568 5.99947 7.27006 6.26616 8.01244 6.76548C8.75483 7.26481 9.33152 7.97409 9.66886 8.80274C10.0062 9.63139 10.0889 10.5418 9.90633 11.4176C9.72378 12.2935 9.28429 13.0951 8.644 13.72C9.33776 14.0643 9.96831 14.5234 10.509 15.078C11.1882 14.2233 12.0331 13.5148 12.993 12.995C12.3735 12.5294 11.8709 11.9261 11.525 11.2327C11.1791 10.5393 10.9993 9.77486 11 8.99996ZM3 10.5C3 9.83692 3.26339 9.20103 3.73223 8.73219C4.20107 8.26335 4.83696 7.99996 5.5 7.99996C6.16304 7.99996 6.79892 8.26335 7.26777 8.73219C7.73661 9.20103 8 9.83692 8 10.5C8 11.163 7.73661 11.7989 7.26777 12.2677C6.79892 12.7366 6.16304 13 5.5 13C4.83696 13 4.20107 12.7366 3.73223 12.2677C3.26339 11.7989 3 11.163 3 10.5Z" fill="#143656"/>
</svg>
