<svg width="15" height="13" viewBox="0 0 15 13" fill="none" xmlns="http://www.w3.org/2000/svg">
<path d="M13.5667 5.63053H14.0667V5.49196L13.9954 5.37315L13.5667 5.63053ZM1.43335 5.63053L1.00468 5.37315L0.93335 5.49196V5.63053H1.43335ZM3.27585 2.56171L2.84718 2.30434H2.84718L3.27585 2.56171ZM11.7242 2.56171L12.1529 2.30434V2.30434L11.7242 2.56171ZM4.03335 9.96671V9.46671H3.53335V9.96671H4.03335ZM10.9667 9.96671H11.4667V9.46671H10.9667V9.96671ZM13.0667 5.63053V10.8334H14.0667V5.63053H13.0667ZM1.86202 5.8879L3.70452 2.81908L2.84718 2.30434L1.00468 5.37315L1.86202 5.8879ZM5.50495 1.80005H9.49509V0.800049H5.50495V1.80005ZM11.2955 2.81908L13.138 5.8879L13.9954 5.37315L12.1529 2.30434L11.2955 2.81908ZM3.16668 11.2H2.30002V12.2H3.16668V11.2ZM3.53335 9.96671V10.8334H4.53335V9.96671H3.53335ZM12.7 11.2H11.8333V12.2H12.7V11.2ZM11.4667 10.8334V9.96671H10.4667V10.8334H11.4667ZM10.9667 9.46671H4.03335V10.4667H10.9667V9.46671ZM1.93335 10.8334V5.63053H0.93335V10.8334H1.93335ZM11.8333 11.2C11.6308 11.2 11.4667 11.0359 11.4667 10.8334H10.4667C10.4667 11.5882 11.0786 12.2 11.8333 12.2V11.2ZM3.16668 12.2C3.92147 12.2 4.53335 11.5882 4.53335 10.8334H3.53335C3.53335 11.0359 3.36919 11.2 3.16668 11.2V12.2ZM2.30002 11.2C2.09751 11.2 1.93335 11.0359 1.93335 10.8334H0.93335C0.93335 11.5882 1.54523 12.2 2.30002 12.2V11.2ZM9.49509 1.80005C10.2325 1.80005 10.9159 2.18685 11.2955 2.81908L12.1529 2.30434C11.5925 1.37104 10.5837 0.800049 9.49509 0.800049V1.80005ZM3.70452 2.81908C4.08412 2.18685 4.76751 1.80005 5.50495 1.80005V0.800049C4.41635 0.800049 3.40753 1.37104 2.84718 2.30434L3.70452 2.81908ZM13.0667 10.8334C13.0667 11.0359 12.9025 11.2 12.7 11.2V12.2C13.4548 12.2 14.0667 11.5882 14.0667 10.8334H13.0667ZM2.73335 8.73338H5.33335V7.73338H2.73335V8.73338ZM12.2667 7.73338H9.66668V8.73338H12.2667V7.73338ZM3.60002 6.13338H11.4V5.13338H3.60002V6.13338Z" fill="#8A9BAB"/>
</svg>
