<svg width="240" height="68" viewBox="0 0 240 68" fill="none" xmlns="http://www.w3.org/2000/svg">
<path d="M83.128 22.28C83.6187 22.28 84.0133 22.44 84.312 22.76C84.6107 23.0587 84.76 23.4533 84.76 23.944V43.496C84.76 43.9867 84.6107 44.392 84.312 44.712C84.0133 45.0107 83.6187 45.16 83.128 45.16C82.6373 45.16 82.2427 45.0107 81.944 44.712C81.6453 44.4133 81.496 44.008 81.496 43.496V34.888H68.888V43.496C68.888 43.9867 68.7387 44.392 68.44 44.712C68.1413 45.0107 67.7467 45.16 67.256 45.16C66.7653 45.16 66.3707 45.0107 66.072 44.712C65.7733 44.4133 65.624 44.008 65.624 43.496V23.944C65.624 23.4533 65.7733 23.0587 66.072 22.76C66.3707 22.44 66.7653 22.28 67.256 22.28C67.7467 22.28 68.1413 22.44 68.44 22.76C68.7387 23.0587 68.888 23.4533 68.888 23.944V32.2H81.496V23.944C81.496 23.4533 81.6453 23.0587 81.944 22.76C82.2427 22.44 82.6373 22.28 83.128 22.28ZM96.399 45.224C94.863 45.224 93.5083 44.8933 92.335 44.232C91.183 43.5707 90.287 42.632 89.647 41.416C89.0283 40.1787 88.719 38.7493 88.719 37.128C88.719 35.4853 89.0283 34.056 89.647 32.84C90.287 31.6027 91.183 30.6533 92.335 29.992C93.5083 29.3307 94.863 29 96.399 29C97.935 29 99.279 29.3307 100.431 29.992C101.604 30.6533 102.5 31.6027 103.119 32.84C103.759 34.056 104.079 35.4853 104.079 37.128C104.079 38.7493 103.759 40.1787 103.119 41.416C102.5 42.632 101.604 43.5707 100.431 44.232C99.279 44.8933 97.935 45.224 96.399 45.224ZM96.399 42.664C97.8283 42.664 98.9163 42.1947 99.663 41.256C100.431 40.3173 100.815 38.9413 100.815 37.128C100.815 35.336 100.431 33.9707 99.663 33.032C98.895 32.072 97.807 31.592 96.399 31.592C94.991 31.592 93.903 32.072 93.135 33.032C92.367 33.9707 91.983 35.336 91.983 37.128C91.983 38.9413 92.3563 40.3173 93.103 41.256C93.871 42.1947 94.9697 42.664 96.399 42.664ZM109.31 45.16C108.84 45.16 108.446 45.032 108.126 44.776C107.827 44.52 107.678 44.136 107.678 43.624V23.848C107.678 23.336 107.827 22.952 108.126 22.696C108.446 22.4187 108.84 22.28 109.31 22.28C109.779 22.28 110.163 22.4187 110.462 22.696C110.76 22.952 110.91 23.336 110.91 23.848V43.624C110.91 44.136 110.76 44.52 110.462 44.776C110.163 45.032 109.779 45.16 109.31 45.16ZM117.06 45.16C116.59 45.16 116.196 45.032 115.876 44.776C115.577 44.52 115.428 44.136 115.428 43.624V30.632C115.428 30.12 115.577 29.736 115.876 29.48C116.196 29.2027 116.59 29.064 117.06 29.064C117.529 29.064 117.913 29.2027 118.212 29.48C118.51 29.736 118.66 30.12 118.66 30.632V43.624C118.66 44.136 118.51 44.52 118.212 44.776C117.913 45.032 117.529 45.16 117.06 45.16ZM117.06 25.928C116.441 25.928 115.95 25.7573 115.588 25.416C115.225 25.0747 115.044 24.6267 115.044 24.072C115.044 23.5173 115.225 23.08 115.588 22.76C115.95 22.4187 116.441 22.248 117.06 22.248C117.657 22.248 118.137 22.4187 118.5 22.76C118.884 23.08 119.076 23.5173 119.076 24.072C119.076 24.6267 118.894 25.0747 118.532 25.416C118.169 25.7573 117.678 25.928 117.06 25.928ZM135.946 22.28C136.436 22.28 136.831 22.4187 137.13 22.696C137.428 22.9733 137.578 23.3467 137.578 23.816V43.592C137.578 44.0827 137.428 44.4667 137.13 44.744C136.852 45.0213 136.468 45.16 135.978 45.16C135.487 45.16 135.092 45.0213 134.794 44.744C134.516 44.4667 134.378 44.0827 134.378 43.592V42.312C133.908 43.2507 133.226 43.976 132.33 44.488C131.434 44.9787 130.399 45.224 129.226 45.224C127.882 45.224 126.676 44.8827 125.61 44.2C124.564 43.5173 123.743 42.5573 123.146 41.32C122.57 40.0827 122.282 38.664 122.282 37.064C122.282 35.4427 122.57 34.024 123.146 32.808C123.743 31.592 124.564 30.6533 125.61 29.992C126.655 29.3307 127.86 29 129.226 29C130.399 29 131.423 29.256 132.298 29.768C133.194 30.2587 133.876 30.9627 134.346 31.88V23.752C134.346 23.304 134.484 22.952 134.762 22.696C135.06 22.4187 135.455 22.28 135.946 22.28ZM129.994 42.664C131.38 42.664 132.458 42.184 133.226 41.224C133.994 40.264 134.378 38.8987 134.378 37.128C134.378 35.3573 133.994 33.992 133.226 33.032C132.479 32.072 131.402 31.592 129.994 31.592C128.586 31.592 127.487 32.072 126.698 33.032C125.93 33.9707 125.546 35.3147 125.546 37.064C125.546 38.8133 125.94 40.1893 126.73 41.192C127.519 42.1733 128.607 42.664 129.994 42.664ZM148.644 29C150.713 29 152.249 29.5227 153.252 30.568C154.276 31.6133 154.788 33.2027 154.788 35.336V43.624C154.788 44.1147 154.649 44.4987 154.372 44.776C154.094 45.032 153.71 45.16 153.22 45.16C152.75 45.16 152.377 45.0213 152.1 44.744C151.822 44.4667 151.684 44.0933 151.684 43.624V42.44C151.278 43.336 150.67 44.0293 149.86 44.52C149.07 44.9893 148.142 45.224 147.076 45.224C146.052 45.224 145.113 45.0213 144.26 44.616C143.428 44.1893 142.766 43.6133 142.276 42.888C141.785 42.1627 141.54 41.3413 141.54 40.424C141.518 39.272 141.806 38.376 142.404 37.736C143.001 37.0747 143.972 36.6053 145.316 36.328C146.66 36.0293 148.526 35.88 150.916 35.88H151.652V34.952C151.652 33.7573 151.406 32.8933 150.916 32.36C150.425 31.8267 149.636 31.56 148.548 31.56C147.801 31.56 147.097 31.656 146.436 31.848C145.774 32.04 145.049 32.3173 144.26 32.68C143.684 33 143.278 33.16 143.044 33.16C142.724 33.16 142.457 33.0427 142.244 32.808C142.052 32.5733 141.956 32.2747 141.956 31.912C141.956 31.592 142.041 31.3147 142.212 31.08C142.404 30.824 142.702 30.5787 143.108 30.344C143.854 29.9387 144.729 29.6187 145.732 29.384C146.734 29.128 147.705 29 148.644 29ZM147.652 42.824C148.825 42.824 149.785 42.4293 150.532 41.64C151.278 40.8293 151.652 39.7947 151.652 38.536V37.704H151.076C149.412 37.704 148.132 37.7787 147.236 37.928C146.34 38.0773 145.7 38.3333 145.316 38.696C144.932 39.0373 144.74 39.5387 144.74 40.2C144.74 40.968 145.017 41.5973 145.572 42.088C146.126 42.5787 146.82 42.824 147.652 42.824ZM170.313 30.024C170.441 29.704 170.622 29.4693 170.857 29.32C171.113 29.1707 171.379 29.096 171.657 29.096C172.062 29.096 172.414 29.2347 172.713 29.512C173.033 29.7893 173.193 30.12 173.193 30.504C173.193 30.7173 173.15 30.92 173.065 31.112L164.169 49.992C164.041 50.2907 163.849 50.5147 163.593 50.664C163.358 50.8347 163.102 50.92 162.825 50.92C162.441 50.92 162.089 50.792 161.769 50.536C161.47 50.28 161.321 49.96 161.321 49.576C161.321 49.4053 161.374 49.192 161.481 48.936L163.689 44.232L157.513 31.112C157.427 30.9413 157.385 30.7493 157.385 30.536C157.385 30.1307 157.555 29.7893 157.897 29.512C158.238 29.2347 158.622 29.096 159.049 29.096C159.689 29.096 160.147 29.3947 160.425 29.992L165.385 41L170.313 30.024Z" fill="black"/>
<path d="M193.818 22.28C194.138 22.28 194.383 22.376 194.554 22.568C194.724 22.7387 194.81 22.984 194.81 23.304V44.136C194.81 44.456 194.724 44.712 194.554 44.904C194.383 45.0747 194.138 45.16 193.818 45.16C193.519 45.16 193.284 45.064 193.114 44.872C192.943 44.68 192.858 44.4347 192.858 44.136V34.408H178.458V44.136C178.458 44.4347 178.372 44.68 178.202 44.872C178.031 45.064 177.796 45.16 177.498 45.16C177.199 45.16 176.954 45.064 176.762 44.872C176.591 44.68 176.506 44.4347 176.506 44.136V23.304C176.506 23.0053 176.591 22.76 176.762 22.568C176.954 22.376 177.199 22.28 177.498 22.28C177.796 22.28 178.031 22.376 178.202 22.568C178.372 22.76 178.458 23.0053 178.458 23.304V32.68H192.858V23.304C192.858 23.0053 192.943 22.76 193.114 22.568C193.284 22.376 193.519 22.28 193.818 22.28ZM211.863 29.16C212.161 29.16 212.396 29.256 212.567 29.448C212.759 29.6187 212.855 29.8533 212.855 30.152V44.168C212.855 44.4667 212.759 44.712 212.567 44.904C212.396 45.0747 212.161 45.16 211.863 45.16C211.585 45.16 211.361 45.0747 211.191 44.904C211.02 44.712 210.935 44.4667 210.935 44.168V42.216C210.444 43.1973 209.74 43.944 208.823 44.456C207.927 44.968 206.903 45.224 205.751 45.224C203.916 45.224 202.529 44.7227 201.591 43.72C200.673 42.696 200.215 41.192 200.215 39.208V30.152C200.215 29.8533 200.3 29.6187 200.471 29.448C200.663 29.256 200.908 29.16 201.207 29.16C201.505 29.16 201.74 29.256 201.911 29.448C202.081 29.6187 202.167 29.8533 202.167 30.152V39.08C202.167 40.5947 202.465 41.7147 203.063 42.44C203.681 43.144 204.641 43.496 205.943 43.496C207.436 43.496 208.631 43.0267 209.527 42.088C210.444 41.128 210.903 39.8587 210.903 38.28V30.152C210.903 29.8533 210.988 29.6187 211.159 29.448C211.329 29.256 211.564 29.16 211.863 29.16ZM225.262 29.096C226.628 29.096 227.833 29.4267 228.878 30.088C229.924 30.7493 230.734 31.688 231.31 32.904C231.886 34.0987 232.174 35.496 232.174 37.096C232.174 38.7173 231.886 40.1467 231.31 41.384C230.734 42.6 229.924 43.5493 228.878 44.232C227.833 44.8933 226.628 45.224 225.262 45.224C224.004 45.224 222.916 44.9573 221.998 44.424C221.081 43.8693 220.388 43.0693 219.918 42.024V44.136C219.918 44.4347 219.833 44.68 219.662 44.872C219.492 45.0427 219.257 45.128 218.958 45.128C218.66 45.128 218.414 45.0427 218.222 44.872C218.052 44.68 217.966 44.4347 217.966 44.136V23.272C217.966 22.9733 218.052 22.7387 218.222 22.568C218.414 22.376 218.66 22.28 218.958 22.28C219.257 22.28 219.492 22.376 219.662 22.568C219.833 22.7387 219.918 22.9733 219.918 23.272V32.296C220.388 31.2507 221.081 30.4613 221.998 29.928C222.916 29.3733 224.004 29.096 225.262 29.096ZM225.006 43.496C226.628 43.496 227.886 42.9307 228.782 41.8C229.7 40.6693 230.158 39.1013 230.158 37.096C230.158 35.0907 229.7 33.544 228.782 32.456C227.886 31.3467 226.617 30.792 224.974 30.792C223.353 30.792 222.105 31.3467 221.23 32.456C220.356 33.5653 219.918 35.1333 219.918 37.16C219.918 39.1867 220.356 40.7547 221.23 41.864C222.126 42.952 223.385 43.496 225.006 43.496Z" fill="#25B99B"/>
<path fill-rule="evenodd" clip-rule="evenodd" d="M0 4.53782H18.8672C12.7322 8.52812 8.8735 15.1248 7.84812 24.2531C14.2444 12.118 22.859 3.94873 35.509 0C33.4477 1.3606 31.5022 2.87669 29.6219 4.53782H42.4283V11.3976C30.3342 9.73351 18.8851 14.3255 9.1205 25.6923C27.3792 16.3404 44.7939 13.9089 62 19.2081C55.5819 18.9802 49.0638 19.3313 42.4283 20.3591V30.374C33.0772 25.2512 21.7298 24.2306 8.70933 27.8759C27.973 29.8731 44.5601 34.8098 55.267 49.8204C51.2202 47.3184 46.9485 45.0795 42.4283 43.1328V67.6526H5.15742C7.11968 56.0259 7.48151 44.3451 6.29435 34.1905C5.37961 46.3244 2.81181 56.1419 0 66.6583V4.53782ZM25.4899 52.7383C27.4452 39.6093 17.8128 31.4514 7.67677 29.8779C15.3709 36.3744 21.0633 44.1513 25.4899 52.7383Z" fill="#25B99B"/>
</svg>
