<svg width="208" height="62" viewBox="0 0 208 62" fill="none" xmlns="http://www.w3.org/2000/svg">
<path d="M87.584 33.032C87.9893 33.032 88.3093 33.1493 88.544 33.384C88.8 33.6187 88.928 33.9387 88.928 34.344V41.832C88.928 42.5573 88.8213 43.08 88.608 43.4C88.416 43.72 88.0213 43.976 87.424 44.168C86.5707 44.5093 85.5573 44.776 84.384 44.968C83.2107 45.16 82.048 45.256 80.896 45.256C78.6133 45.256 76.64 44.7973 74.976 43.88C73.312 42.9627 72.0427 41.64 71.168 39.912C70.2933 38.184 69.856 36.1147 69.856 33.704C69.856 31.336 70.2933 29.288 71.168 27.56C72.0427 25.832 73.2907 24.5093 74.912 23.592C76.5547 22.6533 78.4747 22.184 80.672 22.184C82.1653 22.184 83.5413 22.408 84.8 22.856C86.08 23.2827 87.168 23.912 88.064 24.744C88.4907 25.0853 88.704 25.512 88.704 26.024C88.704 26.408 88.5973 26.7387 88.384 27.016C88.1707 27.272 87.9147 27.4 87.616 27.4C87.424 27.4 87.2533 27.368 87.104 27.304C86.9547 27.24 86.7627 27.1333 86.528 26.984C85.4827 26.216 84.5333 25.6827 83.68 25.384C82.8267 25.064 81.8453 24.904 80.736 24.904C78.304 24.904 76.448 25.6613 75.168 27.176C73.888 28.6693 73.248 30.8453 73.248 33.704C73.248 36.6267 73.8987 38.8453 75.2 40.36C76.5227 41.8533 78.4533 42.6 80.992 42.6C82.6987 42.6 84.3413 42.344 85.92 41.832V35.528H81.728C81.3013 35.528 80.96 35.4213 80.704 35.208C80.4693 34.9733 80.352 34.664 80.352 34.28C80.352 33.896 80.4693 33.5973 80.704 33.384C80.96 33.1493 81.3013 33.032 81.728 33.032H87.584ZM101.713 29.064C102.737 29 103.249 29.4373 103.249 30.376C103.249 30.8453 103.132 31.1973 102.897 31.432C102.663 31.6667 102.257 31.8053 101.681 31.848L100.721 31.944C99.3773 32.072 98.3746 32.5413 97.7133 33.352C97.0733 34.1627 96.7533 35.144 96.7533 36.296V43.624C96.7533 44.136 96.6039 44.52 96.3053 44.776C96.0066 45.032 95.6226 45.16 95.1533 45.16C94.6839 45.16 94.2893 45.032 93.9693 44.776C93.6706 44.52 93.5213 44.136 93.5213 43.624V30.6C93.5213 30.1093 93.6706 29.736 93.9693 29.48C94.2893 29.2027 94.6839 29.064 95.1533 29.064C95.5799 29.064 95.9319 29.2027 96.2093 29.48C96.5079 29.736 96.6573 30.0987 96.6573 30.568V32.104C97.0839 31.1653 97.7026 30.4507 98.5133 29.96C99.3239 29.4693 100.241 29.1813 101.265 29.096L101.713 29.064ZM117.336 29.064C117.827 29.064 118.211 29.2027 118.488 29.48C118.787 29.7573 118.936 30.1413 118.936 30.632V43.656C118.936 44.104 118.787 44.4667 118.488 44.744C118.189 45.0213 117.795 45.16 117.304 45.16C116.856 45.16 116.493 45.032 116.216 44.776C115.939 44.4987 115.8 44.136 115.8 43.688V42.472C115.309 43.368 114.627 44.0507 113.752 44.52C112.899 44.9893 111.939 45.224 110.872 45.224C107.075 45.224 105.176 43.1333 105.176 38.952V30.632C105.176 30.1413 105.315 29.7573 105.592 29.48C105.891 29.2027 106.296 29.064 106.808 29.064C107.299 29.064 107.683 29.2027 107.96 29.48C108.259 29.7573 108.408 30.1413 108.408 30.632V38.92C108.408 40.1787 108.664 41.1067 109.176 41.704C109.688 42.3013 110.477 42.6 111.544 42.6C112.803 42.6 113.805 42.1947 114.552 41.384C115.32 40.5733 115.704 39.496 115.704 38.152V30.632C115.704 30.1627 115.853 29.7893 116.152 29.512C116.451 29.2133 116.845 29.064 117.336 29.064ZM131.843 29C133.208 29 134.413 29.3307 135.459 29.992C136.504 30.6533 137.315 31.592 137.891 32.808C138.488 34.024 138.787 35.4427 138.787 37.064C138.787 38.664 138.488 40.0827 137.891 41.32C137.315 42.5573 136.493 43.5173 135.427 44.2C134.381 44.8827 133.187 45.224 131.843 45.224C130.669 45.224 129.635 44.9787 128.739 44.488C127.843 43.976 127.16 43.2507 126.691 42.312V43.592C126.691 44.0613 126.541 44.4453 126.243 44.744C125.965 45.0213 125.581 45.16 125.091 45.16C124.6 45.16 124.205 45.0213 123.907 44.744C123.608 44.4453 123.459 44.0613 123.459 43.592V23.816C123.459 23.3467 123.608 22.9733 123.907 22.696C124.227 22.4187 124.632 22.28 125.123 22.28C125.592 22.28 125.965 22.4187 126.243 22.696C126.541 22.952 126.691 23.304 126.691 23.752V31.944C127.16 31.0053 127.843 30.28 128.739 29.768C129.635 29.256 130.669 29 131.843 29ZM131.075 42.664C132.461 42.664 133.539 42.1733 134.307 41.192C135.096 40.2107 135.491 38.8347 135.491 37.064C135.491 35.3147 135.107 33.9707 134.339 33.032C133.571 32.072 132.483 31.592 131.075 31.592C129.667 31.592 128.579 32.072 127.811 33.032C127.064 33.992 126.691 35.3573 126.691 37.128C126.691 38.8987 127.064 40.264 127.811 41.224C128.579 42.184 129.667 42.664 131.075 42.664Z" fill="#C92468"/>
<path d="M152.573 45.256C150.418 45.256 148.541 44.7973 146.941 43.88C145.341 42.9413 144.114 41.608 143.261 39.88C142.408 38.1307 141.981 36.072 141.981 33.704C141.981 31.3573 142.408 29.32 143.261 27.592C144.114 25.8427 145.341 24.5093 146.941 23.592C148.541 22.6533 150.418 22.184 152.573 22.184C153.981 22.184 155.314 22.408 156.573 22.856C157.832 23.2827 158.93 23.912 159.869 24.744C160.274 25.064 160.477 25.4907 160.477 26.024C160.477 26.408 160.37 26.7387 160.157 27.016C159.944 27.272 159.688 27.4 159.389 27.4C159.026 27.4 158.674 27.2613 158.333 26.984C157.309 26.216 156.37 25.6827 155.517 25.384C154.685 25.064 153.736 24.904 152.669 24.904C150.322 24.904 148.52 25.6613 147.261 27.176C146.002 28.6907 145.373 30.8667 145.373 33.704C145.373 36.5627 146.002 38.7493 147.261 40.264C148.52 41.7787 150.322 42.536 152.669 42.536C153.693 42.536 154.621 42.376 155.453 42.056C156.306 41.736 157.266 41.2027 158.333 40.456C158.76 40.1787 159.112 40.04 159.389 40.04C159.688 40.04 159.944 40.1787 160.157 40.456C160.37 40.712 160.477 41.032 160.477 41.416C160.477 41.9493 160.274 42.376 159.869 42.696C158.93 43.528 157.832 44.168 156.573 44.616C155.314 45.0427 153.981 45.256 152.573 45.256ZM165.653 45.16C165.184 45.16 164.789 45.032 164.469 44.776C164.171 44.52 164.021 44.136 164.021 43.624V23.848C164.021 23.336 164.171 22.952 164.469 22.696C164.789 22.4187 165.184 22.28 165.653 22.28C166.123 22.28 166.507 22.4187 166.805 22.696C167.104 22.952 167.253 23.336 167.253 23.848V43.624C167.253 44.136 167.104 44.52 166.805 44.776C166.507 45.032 166.123 45.16 165.653 45.16ZM183.867 29.064C184.358 29.064 184.742 29.2027 185.019 29.48C185.318 29.7573 185.467 30.1413 185.467 30.632V43.656C185.467 44.104 185.318 44.4667 185.019 44.744C184.721 45.0213 184.326 45.16 183.835 45.16C183.387 45.16 183.025 45.032 182.747 44.776C182.47 44.4987 182.331 44.136 182.331 43.688V42.472C181.841 43.368 181.158 44.0507 180.283 44.52C179.43 44.9893 178.47 45.224 177.403 45.224C173.606 45.224 171.707 43.1333 171.707 38.952V30.632C171.707 30.1413 171.846 29.7573 172.123 29.48C172.422 29.2027 172.827 29.064 173.339 29.064C173.83 29.064 174.214 29.2027 174.491 29.48C174.79 29.7573 174.939 30.1413 174.939 30.632V38.92C174.939 40.1787 175.195 41.1067 175.707 41.704C176.219 42.3013 177.009 42.6 178.075 42.6C179.334 42.6 180.337 42.1947 181.083 41.384C181.851 40.5733 182.235 39.496 182.235 38.152V30.632C182.235 30.1627 182.385 29.7893 182.683 29.512C182.982 29.2133 183.377 29.064 183.867 29.064ZM198.374 29C199.739 29 200.945 29.3307 201.99 29.992C203.035 30.6533 203.846 31.592 204.422 32.808C205.019 34.024 205.318 35.4427 205.318 37.064C205.318 38.664 205.019 40.0827 204.422 41.32C203.846 42.5573 203.025 43.5173 201.958 44.2C200.913 44.8827 199.718 45.224 198.374 45.224C197.201 45.224 196.166 44.9787 195.27 44.488C194.374 43.976 193.691 43.2507 193.222 42.312V43.592C193.222 44.0613 193.073 44.4453 192.774 44.744C192.497 45.0213 192.113 45.16 191.622 45.16C191.131 45.16 190.737 45.0213 190.438 44.744C190.139 44.4453 189.99 44.0613 189.99 43.592V23.816C189.99 23.3467 190.139 22.9733 190.438 22.696C190.758 22.4187 191.163 22.28 191.654 22.28C192.123 22.28 192.497 22.4187 192.774 22.696C193.073 22.952 193.222 23.304 193.222 23.752V31.944C193.691 31.0053 194.374 30.28 195.27 29.768C196.166 29.256 197.201 29 198.374 29ZM197.606 42.664C198.993 42.664 200.07 42.1733 200.838 41.192C201.627 40.2107 202.022 38.8347 202.022 37.064C202.022 35.3147 201.638 33.9707 200.87 33.032C200.102 32.072 199.014 31.592 197.606 31.592C196.198 31.592 195.11 32.072 194.342 33.032C193.595 33.992 193.222 35.3573 193.222 37.128C193.222 38.8987 193.595 40.264 194.342 41.224C195.11 42.184 196.198 42.664 197.606 42.664Z" fill="#414042"/>
<path d="M53.5627 20.2331C47.9242 12.9631 38.9076 17.9704 38.9076 17.9704C37.0308 14.2666 31.2739 9.84552 23.6685 9.87712C17.8532 9.90082 8.45619 13.6077 6.94869 24.1439C5.33859 35.3974 14.7198 46.0725 23.1223 50.383C23.1223 48.3131 23.1223 47.5926 23.1223 47.5736C23.1223 45.8624 23.1223 43.2473 23.1223 39.3476C21.4065 38.7393 20.1878 37.303 20.1326 35.6138H20.1263C20.1263 35.2378 20.1263 34.9028 20.1263 34.6041C20.1263 34.5868 20.1263 34.0495 20.1263 32.4994C20.1263 31.1137 20.1263 28.9158 20.1263 25.5502C20.1263 25.1441 20.4546 24.817 20.8587 24.817C21.2628 24.817 21.5912 25.1457 21.5912 25.5502V33.8773C21.5912 34.3513 22.6693 34.4161 22.6693 33.8773V25.5502C22.6693 25.1441 22.9976 24.817 23.4017 24.817C23.8058 24.817 24.1342 25.1457 24.1342 25.5502V33.8773C24.1342 34.4161 25.5138 34.4319 25.5138 33.8773V25.5502C25.5138 25.1441 25.8421 24.817 26.2462 24.817C26.6503 24.817 26.9787 25.1457 26.9787 25.5502V33.8773C26.9787 34.5962 28.3157 34.5457 28.3157 33.8773V25.5502C28.3157 25.1441 28.644 24.817 29.0481 24.817C29.4522 24.817 29.7806 25.1457 29.7806 25.5502C29.7806 54.0173 29.7774 7.28259 29.7774 35.6138H29.7727C29.7174 37.2951 28.5099 38.7282 26.805 39.3413C26.805 42.0654 26.805 42.9929 26.805 43.271C26.805 43.3469 26.805 43.3753 26.805 43.3785C26.805 43.7277 26.805 47.0743 26.805 52.1433C29.5675 53.3694 31.4459 53.9999 31.4459 53.9999C32.925 53.371 34.3536 52.7042 35.7348 52.009C35.7348 45.1608 35.7348 40.7539 35.7348 40.7428C35.7348 40.6796 35.7348 40.6196 35.7348 40.5548C33.7348 39.6921 32.3078 37.382 32.3078 33.931C32.3078 29.4894 34.6677 24.8533 37.5769 24.8533C40.4878 24.8533 42.8477 29.4894 42.8477 33.931C42.8477 37.382 41.4207 39.6921 39.4207 40.5548C39.4207 41.5266 39.4207 42.1428 39.4207 42.5189C39.4207 42.9171 39.4207 43.0498 39.4207 43.0482C39.4207 43.7182 39.4207 46.4818 39.4207 50.0086C54.9708 40.9435 59.6685 28.1068 53.5627 20.2331Z" fill="#EC467B"/>
<path d="M49.2212 9.91359C51.9735 7.47636 53.1918 4.35448 51.9423 2.94069C50.6929 1.52689 47.4488 2.35655 44.6965 4.79378C41.9442 7.23102 40.7259 10.3529 41.9754 11.7667C43.2248 13.1805 46.4689 12.3508 49.2212 9.91359Z" fill="#8CC342"/>
<path d="M7.81531 43.0735C6.58564 42.1128 4.82715 41.7999 3.15706 42.4051C1.4854 43.0087 0.33307 44.3739 0 45.8987C1.22968 46.8594 2.98816 47.1723 4.65825 46.5671C6.32991 45.9635 7.48224 44.5983 7.81531 43.0735Z" fill="#8AC643"/>
<path d="M60.8224 12.8952C59.7916 11.5253 57.9984 10.6831 56.0221 10.8316C54.0473 10.9801 52.3994 12.0799 51.5833 13.5873C52.614 14.9572 54.4072 15.7994 56.3836 15.6509C58.3583 15.504 60.0063 14.4042 60.8224 12.8952Z" fill="#8CC342"/>
<path d="M11.0766 48.6437C11.0766 49.4274 10.442 50.1416 9.65747 50.1416C8.87452 50.1416 8.23837 49.4274 8.23837 48.6437C8.23837 47.8599 8.87294 47.2231 9.65747 47.2231C10.4404 47.2231 11.0766 47.8583 11.0766 48.6437Z" fill="#414042"/>
<path d="M41.9021 1.34625C41.9021 2.09048 41.1129 2.69249 40.3694 2.69249C39.6259 2.69249 39.0245 2.0889 39.0245 1.34625C39.0245 0.602019 39.6275 0 40.3694 0C41.1129 0 41.9021 0.603599 41.9021 1.34625Z" fill="#414042"/>
<path d="M53.9716 47.2197C53.9716 48.0477 53.3007 48.7256 52.4736 48.7256C51.6464 48.7256 50.9755 48.0493 50.9755 47.2197C50.9755 46.3918 51.6464 45.7202 52.4736 45.7202C53.3007 45.7202 53.9716 46.3918 53.9716 47.2197Z" fill="#8CC342"/>
<path d="M7.48698 9.91355C7.48698 11.2361 6.41515 12.309 5.09392 12.309C3.77269 12.309 2.70087 11.2361 2.70087 9.91355C2.70087 8.591 3.77269 7.44385 5.09392 7.44385C6.41673 7.44385 7.48698 8.591 7.48698 9.91355Z" fill="#414042"/>
<path d="M13.2849 11.1255C13.9745 11.1255 14.5336 10.5659 14.5336 9.87559C14.5336 9.18531 13.9745 8.62573 13.2849 8.62573C12.5953 8.62573 12.0363 9.18531 12.0363 9.87559C12.0363 10.5659 12.5953 11.1255 13.2849 11.1255Z" fill="#8CC342"/>
<path d="M62.2194 31.5421C62.2557 31.5784 62.292 31.6148 62.3283 31.6511C62.5051 31.8281 62.7687 31.9387 63.0197 31.9387C63.2597 31.9387 63.547 31.8313 63.7111 31.6511C63.8816 31.4647 64.0095 31.2198 63.9984 30.959C63.9874 30.6999 63.899 30.4534 63.7111 30.267C63.6748 30.2306 63.6385 30.1943 63.6022 30.1579C63.4254 29.981 63.1618 29.8704 62.9108 29.8704C62.6709 29.8704 62.3836 29.9778 62.2194 30.1579C62.0489 30.3444 61.9211 30.5893 61.9321 30.85C61.9448 31.1092 62.0331 31.3557 62.2194 31.5421Z" fill="#414042"/>
<path d="M32.8177 13.1417C33.3844 13.1417 33.9463 13.1654 34.502 13.2112C31.7443 11.2898 28.0079 9.85826 23.6685 9.87564C17.8532 9.90093 8.45619 13.6078 6.94869 24.144C5.79794 32.1835 10.2589 39.926 15.9621 45.2668C13.6827 41.9628 12.3457 37.9557 12.3457 33.6357C12.3457 22.3174 21.5106 13.1417 32.8177 13.1417Z" fill="#C92468"/>
<path d="M53.2897 33.6342C53.2897 35.11 53.1318 36.5495 52.8366 37.9384C56.9992 31.5089 57.2392 24.972 53.5643 20.2333C50.6741 16.5074 46.8982 16.0065 43.9022 16.4032C49.5486 20.0516 53.2897 26.4052 53.2897 33.6342Z" fill="#F19BB7"/>
</svg>
