<svg width="187" height="56" viewBox="0 0 187 56" fill="none" xmlns="http://www.w3.org/2000/svg">
<path d="M66.68 16.28C66.9787 16.28 67.2027 16.376 67.352 16.568C67.5227 16.7387 67.608 16.984 67.608 17.304V38.136C67.608 38.4347 67.5227 38.68 67.352 38.872C67.1813 39.064 66.9467 39.16 66.648 39.16C66.328 39.16 66.04 39 65.784 38.68L51.768 19.768V38.136C51.768 38.4347 51.6827 38.68 51.512 38.872C51.3413 39.064 51.1173 39.16 50.84 39.16C50.52 39.16 50.2853 39.0747 50.136 38.904C49.9867 38.712 49.912 38.456 49.912 38.136V17.304C49.912 17.0053 49.9973 16.76 50.168 16.568C50.36 16.376 50.616 16.28 50.936 16.28C51.2773 16.28 51.5547 16.44 51.768 16.76L65.752 35.64V17.304C65.752 17.0053 65.8373 16.76 66.008 16.568C66.1787 16.376 66.4027 16.28 66.68 16.28ZM74.0833 39.16C73.7846 39.16 73.5393 39.0747 73.3473 38.904C73.1766 38.7333 73.0913 38.488 73.0913 38.168V24.152C73.0913 23.832 73.1766 23.5867 73.3473 23.416C73.5393 23.2453 73.7846 23.16 74.0833 23.16C74.3819 23.16 74.6166 23.2453 74.7873 23.416C74.9579 23.5867 75.0433 23.832 75.0433 24.152V38.168C75.0433 38.488 74.9579 38.7333 74.7873 38.904C74.6166 39.0747 74.3819 39.16 74.0833 39.16ZM74.0833 19.544C73.6566 19.544 73.3046 19.416 73.0273 19.16C72.7713 18.904 72.6432 18.5733 72.6432 18.168C72.6432 17.7413 72.7713 17.4 73.0273 17.144C73.3046 16.888 73.6566 16.76 74.0833 16.76C74.5099 16.76 74.8513 16.888 75.1073 17.144C75.3846 17.4 75.5233 17.7413 75.5233 18.168C75.5233 18.5733 75.3846 18.904 75.1073 19.16C74.8513 19.416 74.5099 19.544 74.0833 19.544ZM92.537 23.16C92.8357 23.16 93.0703 23.256 93.241 23.448C93.433 23.6187 93.529 23.8533 93.529 24.152V38.104C93.529 40.3653 92.9637 42.072 91.833 43.224C90.7237 44.3973 89.0703 44.984 86.873 44.984C85.721 44.984 84.6863 44.8667 83.769 44.632C82.873 44.4187 82.0303 44.0773 81.241 43.608C80.473 43.1387 80.089 42.68 80.089 42.232C80.089 41.9973 80.153 41.8053 80.281 41.656C80.4303 41.5067 80.6117 41.432 80.825 41.432C80.953 41.432 81.1237 41.4853 81.337 41.592C81.5717 41.72 81.7317 41.8053 81.817 41.848C82.5423 42.2533 83.289 42.584 84.057 42.84C84.825 43.1173 85.7743 43.256 86.905 43.256C88.4623 43.256 89.6357 42.84 90.425 42.008C91.2143 41.176 91.609 39.9387 91.609 38.296V35.256C91.161 36.3013 90.4677 37.112 89.529 37.688C88.6117 38.2427 87.4917 38.52 86.169 38.52C84.8037 38.52 83.5877 38.2 82.521 37.56C81.4757 36.92 80.6543 36.0133 80.057 34.84C79.481 33.6667 79.193 32.3227 79.193 30.808C79.193 29.2933 79.481 27.9493 80.057 26.776C80.6543 25.6027 81.4757 24.696 82.521 24.056C83.5877 23.416 84.8037 23.096 86.169 23.096C87.4703 23.096 88.5797 23.3733 89.497 23.928C90.4143 24.4613 91.1077 25.2507 91.577 26.296V24.152C91.577 23.8533 91.6623 23.6187 91.833 23.448C92.0037 23.256 92.2383 23.16 92.537 23.16ZM86.425 36.792C88.0463 36.792 89.305 36.2587 90.201 35.192C91.1183 34.1253 91.577 32.664 91.577 30.808C91.577 28.952 91.1183 27.4907 90.201 26.424C89.2837 25.336 88.025 24.792 86.425 24.792C84.8037 24.792 83.5343 25.3253 82.617 26.392C81.6997 27.4587 81.241 28.9307 81.241 30.808C81.241 32.6853 81.6997 34.1573 82.617 35.224C83.5343 36.2693 84.8037 36.792 86.425 36.792ZM105.918 23.096C109.651 23.096 111.518 25.1013 111.518 29.112V38.168C111.518 38.4667 111.432 38.712 111.262 38.904C111.091 39.0747 110.856 39.16 110.558 39.16C110.259 39.16 110.014 39.0747 109.822 38.904C109.651 38.712 109.566 38.4667 109.566 38.168V29.24C109.566 27.704 109.256 26.584 108.638 25.88C108.019 25.176 107.038 24.824 105.694 24.824C104.158 24.824 102.92 25.2933 101.982 26.232C101.064 27.1707 100.606 28.4293 100.606 30.008V38.168C100.606 38.4667 100.52 38.712 100.35 38.904C100.179 39.0747 99.9444 39.16 99.6458 39.16C99.3471 39.16 99.1018 39.0747 98.9098 38.904C98.7391 38.712 98.6538 38.4667 98.6538 38.168V17.272C98.6538 16.9733 98.7391 16.7387 98.9098 16.568C99.1018 16.376 99.3471 16.28 99.6458 16.28C99.9444 16.28 100.179 16.376 100.35 16.568C100.52 16.7387 100.606 16.9733 100.606 17.272V26.072C101.096 25.112 101.8 24.376 102.718 23.864C103.656 23.352 104.723 23.096 105.918 23.096ZM123.343 37.528C123.941 37.592 124.239 37.8693 124.239 38.36C124.239 38.616 124.143 38.8187 123.951 38.968C123.759 39.1173 123.45 39.1813 123.023 39.16L122.127 39.096C120.506 38.9893 119.301 38.4987 118.511 37.624C117.743 36.728 117.359 35.3733 117.359 33.56V25.048H114.927C114.671 25.048 114.469 24.984 114.319 24.856C114.17 24.7067 114.095 24.5147 114.095 24.28C114.095 24.0453 114.17 23.8533 114.319 23.704C114.469 23.5547 114.671 23.48 114.927 23.48H117.359V19.512C117.359 19.192 117.445 18.9467 117.615 18.776C117.786 18.6053 118.021 18.52 118.319 18.52C118.618 18.52 118.853 18.6053 119.023 18.776C119.215 18.9467 119.311 19.192 119.311 19.512V23.48H123.183C123.461 23.48 123.674 23.5547 123.823 23.704C123.973 23.8533 124.047 24.0453 124.047 24.28C124.047 24.5147 123.973 24.7067 123.823 24.856C123.674 24.984 123.461 25.048 123.183 25.048H119.311V33.656C119.311 34.9787 119.567 35.928 120.079 36.504C120.591 37.0587 121.391 37.3787 122.479 37.464L123.343 37.528Z" fill="black"/>
<path d="M128.372 39.16C127.903 39.16 127.508 39.032 127.188 38.776C126.889 38.52 126.74 38.136 126.74 37.624V17.848C126.74 17.336 126.889 16.952 127.188 16.696C127.508 16.4187 127.903 16.28 128.372 16.28C128.841 16.28 129.225 16.4187 129.524 16.696C129.823 16.952 129.972 17.336 129.972 17.848V37.624C129.972 38.136 129.823 38.52 129.524 38.776C129.225 39.032 128.841 39.16 128.372 39.16ZM136.122 39.16C135.653 39.16 135.258 39.032 134.938 38.776C134.639 38.52 134.49 38.136 134.49 37.624V24.632C134.49 24.12 134.639 23.736 134.938 23.48C135.258 23.2027 135.653 23.064 136.122 23.064C136.591 23.064 136.975 23.2027 137.274 23.48C137.573 23.736 137.722 24.12 137.722 24.632V37.624C137.722 38.136 137.573 38.52 137.274 38.776C136.975 39.032 136.591 39.16 136.122 39.16ZM136.122 19.928C135.503 19.928 135.013 19.7573 134.65 19.416C134.287 19.0747 134.106 18.6267 134.106 18.072C134.106 17.5173 134.287 17.08 134.65 16.76C135.013 16.4187 135.503 16.248 136.122 16.248C136.719 16.248 137.199 16.4187 137.562 16.76C137.946 17.08 138.138 17.5173 138.138 18.072C138.138 18.6267 137.957 19.0747 137.594 19.416C137.231 19.7573 136.741 19.928 136.122 19.928ZM149.6 18.904C148.533 18.9893 147.744 19.3307 147.232 19.928C146.72 20.504 146.464 21.3573 146.464 22.488V23.384H149.632C150.08 23.384 150.421 23.5013 150.656 23.736C150.912 23.9493 151.04 24.248 151.04 24.632C151.04 25.016 150.912 25.3253 150.656 25.56C150.421 25.7733 150.08 25.88 149.632 25.88H146.464V37.592C146.464 38.104 146.304 38.4987 145.984 38.776C145.685 39.032 145.301 39.16 144.832 39.16C144.363 39.16 143.979 39.032 143.68 38.776C143.381 38.4987 143.232 38.104 143.232 37.592V25.88H141.312C140.864 25.88 140.512 25.7733 140.256 25.56C140.021 25.3253 139.904 25.016 139.904 24.632C139.904 24.248 140.021 23.9493 140.256 23.736C140.512 23.5013 140.864 23.384 141.312 23.384H143.232V22.968C143.232 21.0053 143.733 19.4693 144.736 18.36C145.739 17.2293 147.157 16.6 148.992 16.472L149.824 16.408C150.507 16.3653 150.997 16.44 151.296 16.632C151.616 16.824 151.776 17.1333 151.776 17.56C151.776 18.3067 151.328 18.7333 150.432 18.84L149.6 18.904ZM165.245 35.064C165.544 35.064 165.789 35.1813 165.981 35.416C166.173 35.6507 166.269 35.9493 166.269 36.312C166.269 36.9307 165.885 37.4533 165.117 37.88C164.371 38.3067 163.549 38.6373 162.653 38.872C161.779 39.1067 160.936 39.224 160.125 39.224C157.651 39.224 155.699 38.5093 154.269 37.08C152.84 35.6293 152.125 33.656 152.125 31.16C152.125 29.56 152.435 28.1413 153.053 26.904C153.693 25.6667 154.579 24.7067 155.709 24.024C156.861 23.3413 158.163 23 159.613 23C161.704 23 163.357 23.672 164.573 25.016C165.789 26.36 166.397 28.1733 166.397 30.456C166.397 31.3093 166.013 31.736 165.245 31.736H155.357C155.571 35.0427 157.16 36.696 160.125 36.696C160.915 36.696 161.597 36.5893 162.173 36.376C162.749 36.1627 163.357 35.8853 163.997 35.544C164.061 35.5013 164.232 35.416 164.509 35.288C164.808 35.1387 165.053 35.064 165.245 35.064ZM159.677 25.368C158.44 25.368 157.448 25.7627 156.701 26.552C155.955 27.3413 155.507 28.4507 155.357 29.88H163.613C163.549 28.4293 163.176 27.32 162.493 26.552C161.832 25.7627 160.893 25.368 159.677 25.368Z" fill="#0695D3"/>
<g clip-path="url(#clip0)">
<path d="M27.0084 44.4672C29.3464 43.4852 31.4463 42.079 33.249 40.2885C35.0521 38.4977 36.4676 36.4125 37.4564 34.0905C38.4804 31.6861 38.9997 29.1322 38.9997 26.5C38.9997 23.8678 38.4804 21.3139 37.4564 18.9095C36.4676 16.5875 35.0518 14.502 33.249 12.7115C31.4463 10.9207 29.3464 9.51483 27.0084 8.53278C24.5876 7.51573 22.0161 7 19.3658 7C16.9892 7 14.6661 7.41725 12.4609 8.24009C10.3306 9.03513 8.36853 10.1853 6.62933 11.6591C3.12295 14.6303 0.771544 18.7383 0.00731942 23.2272C-0.0427767 23.5226 0.157262 23.8023 0.45473 23.8524C0.752197 23.9021 1.03377 23.7035 1.08421 23.408C1.8056 19.17 4.02641 15.2908 7.33794 12.4847C8.9804 11.0929 10.8333 10.0065 12.8447 9.25577C14.9266 8.47891 17.1208 8.08499 19.3655 8.08499C21.8689 8.08499 24.297 8.5719 26.5824 9.53199C28.7901 10.4595 30.7732 11.7874 32.4762 13.4787C34.1791 15.17 35.5161 17.1396 36.45 19.3323C37.4167 21.6021 37.9069 24.014 37.9069 26.5C37.9069 28.986 37.4167 31.3979 36.45 33.6677C35.5161 35.8607 34.1791 37.83 32.4762 39.5213C30.7732 41.2126 28.7901 42.5405 26.5824 43.468C24.297 44.4281 21.8686 44.915 19.3655 44.915C15.3502 44.915 11.5298 43.6615 8.31706 41.2901C6.77064 40.1489 5.41666 38.7818 4.29347 37.2278C3.15577 35.6538 2.21777 33.9422 1.69193 32.0849C1.26387 30.573 1.0241 28.4037 1.63078 26.7608C2.19358 25.2359 3.23455 23.9642 4.56123 23.1809C5.7777 22.4623 7.13962 22.2112 8.49913 22.4541C8.90923 22.5275 9.3138 22.6439 9.7118 22.802C9.708 22.8278 9.70558 22.8535 9.70558 22.8803V33.4056C9.70558 35.3793 11.3225 36.9852 13.3097 36.9852C15.297 36.9852 16.9139 35.3793 16.9139 33.4056V31.5705C16.9139 31.2709 16.6693 31.028 16.3677 31.028C16.0661 31.028 15.8215 31.2709 15.8215 31.5705V33.4056C15.8215 34.7812 14.6945 35.9005 13.3094 35.9005C11.9243 35.9005 10.7973 34.7812 10.7973 33.4056V23.3483C11.5208 23.7913 12.2194 24.3811 12.8875 25.1158C14.4782 26.8648 22.4725 35.5066 22.7088 35.7622C23.3936 36.5394 24.382 36.9852 25.4223 36.9852C25.8548 36.9852 26.2798 36.9086 26.6854 36.7577C28.0853 36.2371 29.0258 34.89 29.0258 33.4052V19.5948C29.0258 17.621 27.4089 16.0152 25.4216 16.0152C23.4343 16.0152 21.8174 17.621 21.8174 19.5948V23.8459L16.027 17.2436C15.0451 16.1243 13.4452 15.7218 12.0452 16.2423C10.6453 16.7629 9.70489 18.11 9.70489 19.5948V20.1311C9.70489 20.4306 9.9495 20.6736 10.2511 20.6736C10.5527 20.6736 10.7973 20.4306 10.7973 20.1311V19.5948C10.7973 18.5602 11.4527 17.621 12.4284 17.2584C13.4041 16.8957 14.5193 17.176 15.2034 17.9559L21.9467 25.6449L23.9519 28.0681C24.06 28.1985 24.2162 28.2661 24.3741 28.2661C24.496 28.2661 24.619 28.2256 24.7206 28.1429C24.9535 27.9528 24.9873 27.6111 24.7959 27.3795L22.9099 25.1V19.5948C22.9099 18.2191 24.0369 17.0998 25.4219 17.0998C26.807 17.0998 27.934 18.2191 27.934 19.5948V33.4056C27.934 34.4401 27.2786 35.3793 26.3029 35.742C26.02 35.8473 25.7239 35.9005 25.4226 35.9005C24.6957 35.9005 24.0051 35.5883 23.528 35.0441C23.5249 35.0406 23.5214 35.0368 23.5183 35.0334C23.4364 34.9449 15.3018 26.1517 13.6984 24.3887C12.18 22.719 10.4957 21.7088 8.6926 21.3866C7.07053 21.0967 5.44879 21.3948 4.00292 22.2486C2.46099 23.1592 1.25454 24.6292 0.605363 26.3875C-0.0894179 28.2695 -0.498133 32.6414 3.40625 37.8605C4.62238 39.4863 6.02853 40.9525 7.66581 42.1607C11.0685 44.6721 15.1142 45.9997 19.3658 45.9997C22.0161 46 24.5876 45.4843 27.0084 44.4672Z" fill="url(#paint0_linear)"/>
</g>
<defs>
<linearGradient id="paint0_linear" x1="33.2492" y1="12.7115" x2="5.68042" y2="40.4695" gradientUnits="userSpaceOnUse">
<stop stop-color="#63FFF4"/>
<stop offset="0.364" stop-color="#09BEE7"/>
<stop offset="0.8552" stop-color="#0364BC"/>
<stop offset="1" stop-color="#07A7DC"/>
</linearGradient>
<clipPath id="clip0">
<rect width="39" height="39" fill="white" transform="translate(0 7)"/>
</clipPath>
</defs>
</svg>
