<svg width="255" height="56" viewBox="0 0 255 56" fill="none" xmlns="http://www.w3.org/2000/svg">
<path d="M44.572 40C44.164 40 43.816 39.88 43.528 39.64C43.264 39.376 43.132 39.04 43.132 38.632V15.952C43.132 15.496 43.264 15.136 43.528 14.872C43.792 14.584 44.152 14.44 44.608 14.44C45.064 14.44 45.424 14.584 45.688 14.872C45.952 15.136 46.084 15.496 46.084 15.952V37.48H57.712C58.144 37.48 58.48 37.588 58.72 37.804C58.96 38.02 59.08 38.332 59.08 38.74C59.08 39.148 58.96 39.46 58.72 39.676C58.48 39.892 58.144 40 57.712 40H44.572ZM63.6174 40.18C63.1854 40.18 62.8254 40.06 62.5374 39.82C62.2734 39.556 62.1414 39.196 62.1414 38.74V23.548C62.1414 23.092 62.2734 22.744 62.5374 22.504C62.8254 22.24 63.1854 22.108 63.6174 22.108C64.0494 22.108 64.3974 22.24 64.6614 22.504C64.9254 22.744 65.0574 23.092 65.0574 23.548V38.74C65.0574 39.22 64.9254 39.58 64.6614 39.82C64.3974 40.06 64.0494 40.18 63.6174 40.18ZM63.6174 18.328C63.0414 18.328 62.5734 18.16 62.2134 17.824C61.8534 17.488 61.6734 17.044 61.6734 16.492C61.6734 15.964 61.8534 15.532 62.2134 15.196C62.5734 14.86 63.0414 14.692 63.6174 14.692C64.1934 14.692 64.6614 14.86 65.0214 15.196C65.3814 15.532 65.5614 15.964 65.5614 16.492C65.5614 17.044 65.3814 17.488 65.0214 17.824C64.6614 18.16 64.1934 18.328 63.6174 18.328ZM78.2486 16.924C76.9766 17.02 76.0166 17.428 75.3686 18.148C74.7206 18.844 74.3966 19.9 74.3966 21.316V22.468H78.3926C78.8006 22.468 79.1126 22.576 79.3286 22.792C79.5446 23.008 79.6526 23.296 79.6526 23.656C79.6526 24.016 79.5446 24.292 79.3286 24.484C79.1126 24.676 78.8006 24.772 78.3926 24.772H74.3966V38.74C74.3966 39.196 74.2526 39.556 73.9646 39.82C73.7006 40.06 73.3646 40.18 72.9566 40.18C72.5246 40.18 72.1646 40.06 71.8766 39.82C71.6126 39.556 71.4806 39.196 71.4806 38.74V24.772H69.0686C68.6606 24.772 68.3366 24.676 68.0966 24.484C67.8806 24.268 67.7726 23.992 67.7726 23.656C67.7726 23.296 67.8806 23.008 68.0966 22.792C68.3366 22.576 68.6606 22.468 69.0686 22.468H71.4806V21.82C71.4806 19.66 72.0206 17.968 73.1006 16.744C74.1806 15.496 75.7286 14.8 77.7446 14.656L78.6806 14.584C79.3046 14.536 79.7486 14.596 80.0126 14.764C80.3006 14.932 80.4446 15.232 80.4446 15.664C80.4446 16.36 80.0246 16.756 79.1846 16.852L78.2486 16.924ZM95.7173 35.932C95.9813 35.932 96.2093 36.04 96.4013 36.256C96.5933 36.472 96.6893 36.748 96.6893 37.084C96.6893 37.684 96.2693 38.236 95.4293 38.74C94.5653 39.244 93.6533 39.628 92.6933 39.892C91.7333 40.132 90.7973 40.252 89.8853 40.252C87.1733 40.252 85.0253 39.448 83.4413 37.84C81.8813 36.232 81.1013 34.012 81.1013 31.18C81.1013 29.38 81.4493 27.796 82.1453 26.428C82.8413 25.036 83.8133 23.956 85.0613 23.188C86.3333 22.42 87.7733 22.036 89.3813 22.036C91.6613 22.036 93.4733 22.78 94.8173 24.268C96.1613 25.756 96.8333 27.772 96.8333 30.316C96.8333 30.796 96.7373 31.144 96.5453 31.36C96.3533 31.576 96.0413 31.684 95.6093 31.684H84.0173C84.2333 35.812 86.1893 37.876 89.8853 37.876C90.8213 37.876 91.6253 37.756 92.2973 37.516C92.9693 37.252 93.6893 36.904 94.4573 36.472C95.0813 36.112 95.5013 35.932 95.7173 35.932ZM89.4173 24.304C87.8813 24.304 86.6453 24.784 85.7093 25.744C84.7973 26.704 84.2573 28.06 84.0893 29.812H94.2773C94.2293 28.036 93.7853 26.68 92.9453 25.744C92.1053 24.784 90.9293 24.304 89.4173 24.304ZM116.79 26.896C118.254 27.304 119.382 28.048 120.174 29.128C120.99 30.208 121.398 31.528 121.398 33.088C121.398 35.248 120.618 36.94 119.058 38.164C117.522 39.388 115.398 40 112.686 40H103.398C102.702 40 102.15 39.808 101.742 39.424C101.358 39.04 101.166 38.5 101.166 37.804V16.816C101.166 16.12 101.358 15.58 101.742 15.196C102.15 14.812 102.702 14.62 103.398 14.62H112.326C114.966 14.62 117.03 15.208 118.518 16.384C120.03 17.536 120.786 19.156 120.786 21.244C120.786 22.588 120.426 23.752 119.706 24.736C119.01 25.72 118.038 26.44 116.79 26.896ZM105.702 25.312H111.57C114.762 25.312 116.358 24.124 116.358 21.748C116.358 20.548 115.962 19.66 115.17 19.084C114.378 18.508 113.178 18.22 111.57 18.22H105.702V25.312ZM112.182 36.4C113.862 36.4 115.086 36.1 115.854 35.5C116.622 34.9 117.006 33.964 117.006 32.692C117.006 31.42 116.61 30.472 115.818 29.848C115.05 29.224 113.838 28.912 112.182 28.912H105.702V36.4H112.182ZM139.24 22.036C139.936 22.036 140.488 22.228 140.896 22.612C141.304 22.996 141.508 23.512 141.508 24.16V38.128C141.508 38.752 141.292 39.256 140.86 39.64C140.452 40.024 139.912 40.216 139.24 40.216C138.592 40.216 138.076 40.036 137.692 39.676C137.308 39.316 137.116 38.824 137.116 38.2V37.3C136.564 38.26 135.82 39.004 134.884 39.532C133.948 40.036 132.892 40.288 131.716 40.288C127.396 40.288 125.236 37.864 125.236 33.016V24.16C125.236 23.512 125.44 22.996 125.848 22.612C126.256 22.228 126.796 22.036 127.468 22.036C128.164 22.036 128.716 22.228 129.124 22.612C129.532 22.996 129.736 23.512 129.736 24.16V33.052C129.736 34.3 129.988 35.224 130.492 35.824C130.996 36.424 131.788 36.724 132.868 36.724C134.116 36.724 135.112 36.316 135.856 35.5C136.624 34.66 137.008 33.556 137.008 32.188V24.16C137.008 23.512 137.212 22.996 137.62 22.612C138.028 22.228 138.568 22.036 139.24 22.036ZM160.88 14.44C161.552 14.44 162.104 14.632 162.536 15.016C162.968 15.4 163.184 15.904 163.184 16.528V38.056C163.184 38.704 162.98 39.22 162.572 39.604C162.164 39.988 161.624 40.18 160.952 40.18C160.28 40.18 159.74 39.988 159.332 39.604C158.924 39.22 158.72 38.704 158.72 38.056V37.156C158.192 38.14 157.424 38.908 156.416 39.46C155.432 40.012 154.304 40.288 153.032 40.288C151.52 40.288 150.164 39.904 148.964 39.136C147.788 38.368 146.864 37.288 146.192 35.896C145.544 34.48 145.22 32.86 145.22 31.036C145.22 29.212 145.544 27.616 146.192 26.248C146.864 24.88 147.788 23.824 148.964 23.08C150.14 22.336 151.496 21.964 153.032 21.964C154.304 21.964 155.432 22.228 156.416 22.756C157.4 23.284 158.156 24.028 158.684 24.988V16.456C158.684 15.856 158.876 15.376 159.26 15.016C159.668 14.632 160.208 14.44 160.88 14.44ZM154.22 36.796C155.66 36.796 156.764 36.304 157.532 35.32C158.324 34.336 158.72 32.932 158.72 31.108C158.72 29.284 158.324 27.892 157.532 26.932C156.764 25.948 155.672 25.456 154.256 25.456C152.816 25.456 151.7 25.936 150.908 26.896C150.116 27.856 149.72 29.236 149.72 31.036C149.72 32.86 150.116 34.276 150.908 35.284C151.7 36.292 152.804 36.796 154.22 36.796ZM182.717 22.036C183.389 22.036 183.929 22.228 184.337 22.612C184.745 22.996 184.949 23.512 184.949 24.16V38.38C184.949 41.14 184.181 43.228 182.645 44.644C181.109 46.06 178.841 46.768 175.841 46.768C173.225 46.768 171.041 46.276 169.289 45.292C168.401 44.764 167.957 44.128 167.957 43.384C167.957 42.856 168.077 42.436 168.317 42.124C168.581 41.812 168.917 41.656 169.325 41.656C169.541 41.656 169.805 41.704 170.117 41.8C170.429 41.92 170.753 42.052 171.089 42.196C171.953 42.556 172.721 42.832 173.393 43.024C174.089 43.216 174.881 43.312 175.769 43.312C178.913 43.312 180.485 41.776 180.485 38.704V36.4C179.957 37.384 179.189 38.152 178.181 38.704C177.173 39.232 176.021 39.496 174.725 39.496C173.189 39.496 171.821 39.136 170.621 38.416C169.445 37.672 168.521 36.64 167.849 35.32C167.177 34 166.841 32.476 166.841 30.748C166.841 29.02 167.165 27.496 167.813 26.176C168.485 24.832 169.421 23.8 170.621 23.08C171.821 22.336 173.189 21.964 174.725 21.964C176.021 21.964 177.173 22.24 178.181 22.792C179.189 23.32 179.957 24.076 180.485 25.06V24.124C180.485 23.5 180.689 22.996 181.097 22.612C181.505 22.228 182.045 22.036 182.717 22.036ZM175.913 36.004C177.353 36.004 178.469 35.536 179.261 34.6C180.077 33.664 180.485 32.38 180.485 30.748C180.485 29.092 180.077 27.796 179.261 26.86C178.469 25.924 177.353 25.456 175.913 25.456C174.497 25.456 173.381 25.924 172.565 26.86C171.749 27.796 171.341 29.092 171.341 30.748C171.341 32.38 171.749 33.664 172.565 34.6C173.381 35.536 174.497 36.004 175.913 36.004ZM203.542 35.176C203.95 35.176 204.274 35.332 204.514 35.644C204.778 35.956 204.91 36.376 204.91 36.904C204.91 37.648 204.466 38.272 203.578 38.776C202.762 39.232 201.838 39.604 200.806 39.892C199.774 40.156 198.79 40.288 197.854 40.288C195.022 40.288 192.778 39.472 191.122 37.84C189.466 36.208 188.638 33.976 188.638 31.144C188.638 29.344 188.998 27.748 189.718 26.356C190.438 24.964 191.446 23.884 192.742 23.116C194.062 22.348 195.55 21.964 197.206 21.964C198.79 21.964 200.17 22.312 201.346 23.008C202.522 23.704 203.434 24.688 204.082 25.96C204.73 27.232 205.054 28.732 205.054 30.46C205.054 31.492 204.598 32.008 203.686 32.008H193.066C193.21 33.664 193.678 34.888 194.47 35.68C195.262 36.448 196.414 36.832 197.926 36.832C198.694 36.832 199.366 36.736 199.942 36.544C200.542 36.352 201.214 36.088 201.958 35.752C202.678 35.368 203.206 35.176 203.542 35.176ZM197.314 25.132C196.09 25.132 195.106 25.516 194.362 26.284C193.642 27.052 193.21 28.156 193.066 29.596H201.202C201.154 28.132 200.794 27.028 200.122 26.284C199.45 25.516 198.514 25.132 197.314 25.132ZM217.632 36.868C218.832 36.94 219.432 37.48 219.432 38.488C219.432 39.064 219.192 39.508 218.712 39.82C218.256 40.108 217.596 40.228 216.732 40.18L215.76 40.108C211.728 39.82 209.712 37.66 209.712 33.628V25.78H207.912C207.264 25.78 206.76 25.636 206.4 25.348C206.064 25.06 205.896 24.64 205.896 24.088C205.896 23.536 206.064 23.116 206.4 22.828C206.76 22.54 207.264 22.396 207.912 22.396H209.712V19.084C209.712 18.436 209.916 17.92 210.324 17.536C210.732 17.152 211.284 16.96 211.98 16.96C212.652 16.96 213.192 17.152 213.6 17.536C214.008 17.92 214.212 18.436 214.212 19.084V22.396H217.272C217.92 22.396 218.412 22.54 218.748 22.828C219.108 23.116 219.288 23.536 219.288 24.088C219.288 24.64 219.108 25.06 218.748 25.348C218.412 25.636 217.92 25.78 217.272 25.78H214.212V33.952C214.212 35.728 215.028 36.676 216.66 36.796L217.632 36.868Z" fill="black"/>
<g clip-path="url(#clip0)">
<path d="M23.3675 25.8975H4.04956V28.5087H23.3675V25.8975Z" fill="#F7EF22"/>
<path d="M21.0284 29.551H1.81982V32.1315H21.0284V29.551Z" fill="#F7EF22"/>
<path d="M23.3675 33.1545H4.10815V35.7543H23.3675V33.1545Z" fill="#F7EF22"/>
<path d="M23.3675 36.7886H4.10815V39.3768H23.3675V36.7886Z" fill="#F7EF22"/>
<path fill-rule="evenodd" clip-rule="evenodd" d="M14.0813 10.753C14.0813 10.753 14.6436 8.17254 16.1744 6.8073C17.7051 5.44206 20.2004 5.56513 20.2004 5.56513C20.2004 5.56513 20.0012 8.20715 17.8574 9.41087C16.7113 10.1204 15.4233 10.5782 14.0813 10.753Z" fill="#A3D03F"/>
<path fill-rule="evenodd" clip-rule="evenodd" d="M6.31055 14.2488C7.3962 14.2789 8.46219 14.5414 9.43453 15.0179C10.8511 15.8551 12 17.0678 12.7499 18.5176C13.2419 19.6059 12.8475 19.529 12.1368 19.3329C11.4261 19.1367 10.7193 19.2559 10.2038 18.8291C9.68835 18.4022 8.98155 17.9984 8.77459 17.8061C8.42313 17.5628 8.1111 17.2684 7.84911 16.9331C7.37661 16.3063 6.31055 14.2488 6.31055 14.2488Z" fill="#A3D03F"/>
<path fill-rule="evenodd" clip-rule="evenodd" d="M12.5389 24.2669V20.0366C6.29092 19.5751 5.16629 13.3989 5.16629 13.3796L5.03352 12.6912L5.74813 12.6489C5.74813 12.6489 9.02831 12.4413 10.8246 13.6027C11.4888 14.0257 12.0696 14.5639 12.5389 15.191V10.8145C12.5074 9.58171 12.7879 8.36055 13.355 7.26106C13.8637 6.32345 14.607 5.52924 15.5145 4.95362C17.3108 3.79989 20.591 3.99603 20.591 3.99603L21.3056 4.03833L21.1767 4.76902C21.1767 4.76902 20.0599 10.9607 13.8002 11.426V24.2669H23.3674C23.4503 24.2664 23.5325 24.2821 23.6092 24.313C23.6859 24.3438 23.7557 24.3894 23.8145 24.4469C23.8733 24.5045 23.9199 24.5729 23.9518 24.6483C23.9836 24.7236 24 24.8045 24 24.8861V28.5088C24.0005 28.5907 23.9845 28.672 23.9529 28.7478C23.9213 28.8236 23.8747 28.8925 23.8159 28.9505C23.757 29.0084 23.6871 29.0543 23.6101 29.0854C23.5331 29.1165 23.4506 29.1323 23.3674 29.1318H21.6609V31.5085H23.3674C23.4505 31.5085 23.5327 31.5246 23.6095 31.5559C23.6862 31.5872 23.756 31.6331 23.8147 31.6909C23.8735 31.7488 23.9201 31.8175 23.9518 31.8931C23.9836 31.9687 24 32.0497 24 32.1315V39.3807C24 39.5459 23.9334 39.7044 23.8147 39.8212C23.6961 39.9381 23.5352 40.0037 23.3674 40.0037H2.97169C2.80491 40.0017 2.64559 39.9353 2.52801 39.8188C2.41044 39.7023 2.344 39.545 2.34299 39.3807V32.7545H0.632607C0.464829 32.7545 0.303923 32.6889 0.185286 32.572C0.0666494 32.4552 1.16978e-10 32.2967 1.16977e-10 32.1315L1.16977e-10 28.5088C-1.59883e-06 28.4272 0.0163887 28.3463 0.0482279 28.271C0.080067 28.1956 0.126726 28.1272 0.185521 28.0696C0.244316 28.0121 0.314085 27.9665 0.390813 27.9356C0.467542 27.9048 0.549716 27.8891 0.632607 27.8896H2.34299V24.8861C2.34401 24.7222 2.41058 24.5653 2.52826 24.4494C2.64594 24.3335 2.80526 24.2679 2.97169 24.2669H12.5389ZM22.7387 36.3772H3.6043V38.7538H22.7387V36.3772ZM21.0283 32.7545H3.6043V35.1504H22.7387V32.7545H21.0283ZM20.3957 29.1318H1.26131V31.5085H20.3957V29.1318ZM22.7387 25.5091H3.6043V27.8896H22.7387V25.5091ZM14.4484 7.84561C14.0749 8.56254 13.8581 9.34857 13.8119 10.1531C17.7872 9.79156 19.2555 6.69189 19.728 5.2382C18.7712 5.2382 17.1585 5.3728 16.19 6.00735C15.4605 6.46465 14.8612 7.09726 14.4484 7.84561ZM12.4959 18.7829C12.4465 17.9785 12.2284 17.1928 11.8555 16.4755C11.4554 15.7284 10.8697 15.0933 10.1529 14.6295C9.18451 14.0026 7.57175 13.8796 6.61503 13.8604C7.06801 15.3025 8.54019 18.4214 12.5155 18.7829H12.4959Z" fill="#0D0B0E"/>
<path fill-rule="evenodd" clip-rule="evenodd" d="M21.5282 24.8862V28.5089H21.1377V24.8862H21.5282ZM4.73679 24.8862V28.5089H5.12729V24.8862H4.73679ZM9.26266 24.8862V28.5089H9.65315V24.8862H9.26266ZM7.31017 24.8862V28.5089H7.70067V24.8862H7.31017ZM5.84971 24.8862V28.5089H6.2402V24.8862H5.84971ZM3.89722 24.8862V28.5089H4.28771V24.8862H3.89722ZM11.5314 25.5092V28.5089H11.9219V24.8862H11.5314V25.5092ZM14.1556 25.5092V28.5089H14.5461V24.8862H14.1556V25.5092ZM16.9594 24.8862V28.5089H16.5689V24.8862H16.9594ZM18.9119 24.8862V28.5089H18.5214V24.8862H18.9119ZM20.3723 24.8862V28.5089H19.9818V24.8862H20.3723ZM22.3248 24.8862V28.5089H21.9343V24.8862H22.3248Z" fill="black"/>
<path fill-rule="evenodd" clip-rule="evenodd" d="M21.5594 35.7542V39.3807H21.1689V35.7542H21.5594ZM4.76804 35.7542V39.3807H5.15854V35.7542H4.76804ZM9.29781 35.7542V39.3807H9.68831V35.7542H9.29781ZM7.34532 35.7542V39.3807H7.73582V35.7542H7.34532ZM5.88486 35.7542V39.3807H6.27536V35.7542H5.88486ZM3.93237 35.7542V39.3807H4.32287V35.7542H3.93237ZM11.5705 36.3772V39.3807H11.961V35.7542H11.5705V36.3772ZM14.1947 36.3772V39.3807H14.5852V35.7542H14.1947V36.3772ZM16.9984 35.7542V39.3807H16.6079V35.7542H16.9984ZM18.9509 35.7542V39.3807H18.5604V35.7542H18.9509ZM20.4114 35.7542V39.3807H20.0209V35.7542H20.4114ZM22.3639 35.7542V39.3807H21.9734V35.7542H22.3639Z" fill="black"/>
<path fill-rule="evenodd" clip-rule="evenodd" d="M21.5594 32.1316V35.7543H21.1689V32.1316H21.5594ZM4.76804 32.1316V35.7543H5.15854V32.1316H4.76804ZM9.29781 32.1316V35.7543H9.68831V32.1316H9.29781ZM7.34532 32.1316V35.7543H7.73582V32.1316H7.34532ZM5.88486 32.1316V35.7543H6.27536V32.1316H5.88486ZM3.93237 32.1316V35.7543H4.32287V32.1316H3.93237ZM11.5705 32.7546V35.7543H11.961V32.1316H11.5705V32.7546ZM14.1947 32.7546V35.7543H14.5852V32.1316H14.1947V32.7546ZM16.9984 32.1316V35.7543H16.6079V32.1316H16.9984ZM18.9509 32.1316V35.7543H18.5604V32.1316H18.9509ZM20.4114 32.1316V35.7543H20.0209V32.1316H20.4114ZM22.3639 32.1316V35.7543H21.9734V32.1316H22.3639Z" fill="black"/>
<path fill-rule="evenodd" clip-rule="evenodd" d="M19.2203 28.5088V32.1315H18.8298V28.5088H19.2203ZM2.42893 28.5088V32.1315H2.81942V28.5088H2.42893ZM6.9548 28.5088V32.1315H7.34529V28.5088H6.9548ZM5.00231 28.5088V32.1315H5.3928V28.5088H5.00231ZM3.54184 28.5088V32.1315H3.93234V28.5088H3.54184ZM1.58936 28.5088V32.1315H1.97985V28.5088H1.58936ZM9.22749 29.1318V32.1315H9.61799V28.5088H9.22749V29.1318ZM11.8516 29.1318V32.1315H12.2421V28.5088H11.8516V29.1318ZM14.6515 28.5088V32.1315H14.261V28.5088H14.6515ZM16.604 28.5088V32.1315H16.2135V28.5088H16.604ZM18.0645 28.5088V32.1315H17.674V28.5088H18.0645ZM19.9974 28.5088V32.1315H19.6069V28.5088H19.9974Z" fill="black"/>
</g>
<defs>
<clipPath id="clip0">
<rect width="24" height="36" fill="white" transform="translate(0 4)"/>
</clipPath>
</defs>
</svg>
