<svg width="292" height="81" viewBox="0 0 292 81" fill="none" xmlns="http://www.w3.org/2000/svg">
<g clip-path="url(#clip0)">
<path d="M47.2094 76.9923H106.988L101.071 16.9802H53.0294L47.2094 76.9923Z" fill="#FDCB28"/>
<path d="M48.2834 12.1416H61.5493V14.0585H50.0154L49.1367 23.1763H35.8793V21.2636H47.392L48.2834 12.1416Z" fill="black"/>
<path d="M78.5635 12.1416H67.106V14.0542H78.5635V12.1416Z" fill="black"/>
<path d="M103.155 63.8374L101.249 64.0282L96.3248 14.0585H84.1288V12.1416H98.0568L103.155 63.8374Z" fill="black"/>
<path d="M93.9178 74.0705H42.2724L43.0704 65.8433H35.2298V63.9307H45.1802L44.3822 72.1579H93.9178V74.0705Z" fill="black"/>
<path d="M82.3076 17.0058H80.3931V9.46131C80.3931 5.30105 77.0055 1.91686 72.8411 1.91686C68.6767 1.91686 65.2891 5.30105 65.2891 9.46131V17.0058H63.3746V9.46131C63.3746 4.24508 67.6239 0 72.8454 0C78.0668 0 82.3161 4.24508 82.3161 9.46131V17.0058H82.3076Z" fill="black"/>
<path d="M32.271 63.9307H29.7664V65.8433H32.271V63.9307Z" fill="black"/>
<path d="M17.9057 32.5994H8.96558V34.512H17.9057V32.5994Z" fill="black"/>
<path d="M16.9463 52.6204H9.84857V54.533H16.9463V52.6204Z" fill="black"/>
<path d="M18.7844 42.6077H4.28754V44.5203H18.7844V42.6077Z" fill="black"/>
<path d="M2.39422 42.6077H0V44.5203H2.39422V42.6077Z" fill="black"/>
<path d="M104.289 74.2952L100.829 80.3935L93.9178 63.9348L110.397 70.8347L104.289 74.2952Z" fill="black"/>
<path d="M103.574 70.8308L100.822 73.5806L108.248 80.9993L111 78.2495L103.574 70.8308Z" fill="black"/>
<path d="M90.707 59.9841L89.9628 60.728L91.9325 62.6946L92.6767 61.9507L90.707 59.9841Z" fill="black"/>
<path d="M91.9318 65.1632L89.9627 67.1304L90.7072 67.874L92.6763 65.9069L91.9318 65.1632Z" fill="black"/>
<path d="M97.1126 59.9843L95.1435 61.9514L95.8879 62.6951L97.857 60.728L97.1126 59.9843Z" fill="black"/>
<path d="M91.6383 63.4048H89.4563V64.4565H91.6383V63.4048Z" fill="black"/>
<path d="M94.4358 59.4819H93.383V61.6617H94.4358V59.4819Z" fill="black"/>
<path d="M38.1592 28.6257L37.5691 31.73C36.2361 31.3228 34.8777 31.115 33.4981 31.115C31.227 31.115 29.461 31.7639 28.2045 33.0658C26.9479 34.3678 26.3197 35.8945 26.3197 37.6502C26.3197 39.02 26.7527 40.1141 27.6229 40.9283C28.4889 41.7426 29.6605 42.1497 31.1293 42.1497C32.9377 42.1497 34.9754 41.4966 37.2465 40.1862L36.7286 43.9266C34.7291 44.8087 32.7552 45.2497 30.8152 45.2497C28.3743 45.2497 26.4003 44.5373 24.8891 43.1208C23.3778 41.7002 22.6265 39.8469 22.6265 37.5611C22.6265 34.7622 23.6453 32.4679 25.6872 30.6867C27.7248 28.9013 30.3652 28.0107 33.6 28.0107C35.0093 28.015 36.5333 28.2185 38.1592 28.6257Z" fill="black"/>
<path d="M48.1008 28.2312L45.7278 45.0419H42.4082L44.7684 28.2312H48.1008Z" fill="black"/>
<path d="M57.0961 33.8505L55.5169 45.0421H52.1846L53.7595 33.8505H57.0961ZM54.0906 30.7462C54.0906 30.2755 54.2562 29.8683 54.5958 29.5291C54.9311 29.194 55.3387 29.0244 55.8141 29.0244C56.2938 29.0244 56.7056 29.194 57.0409 29.5291C57.3763 29.8641 57.5461 30.2712 57.5461 30.7462C57.5461 31.2254 57.3763 31.6368 57.0409 31.9718C56.7013 32.3068 56.2938 32.4765 55.8141 32.4765C55.3387 32.4765 54.9354 32.3068 54.5958 31.9718C54.2562 31.6325 54.0906 31.2254 54.0906 30.7462Z" fill="black"/>
<path d="M72.4632 34.0666L72.043 37.0606C71.4572 36.8528 71.0454 36.7171 70.8077 36.6578C70.5699 36.5984 70.1751 36.5687 69.6233 36.5687C68.4983 36.5687 67.5559 36.8995 66.7918 37.5611C66.0277 38.2226 65.6499 39.0326 65.6499 39.9911C65.6499 40.8011 65.9046 41.4287 66.414 41.8782C66.9234 42.3278 67.6408 42.5525 68.5663 42.5525C69.4662 42.5525 70.5275 42.3066 71.7458 41.8189L71.351 44.8511C70.2261 45.1225 69.0799 45.2582 67.904 45.2582C66.223 45.2582 64.8561 44.7535 63.7948 43.7484C62.7335 42.7434 62.2029 41.4499 62.2029 39.8723C62.2029 38.1251 62.8949 36.6535 64.2745 35.4619C65.6542 34.2659 67.3564 33.6722 69.3813 33.6722C70.5572 33.668 71.5803 33.7994 72.4632 34.0666Z" fill="black"/>
<path d="M82.7703 28.2312L81.31 38.634L85.3555 33.8503H89.4605L85.0286 39.1726L89.3374 45.0419H85.2876L81.1826 39.533L80.41 45.0419H77.0776L79.4506 28.2312H82.7703Z" fill="black"/>
<path d="M30.1527 53.8077H31.9866C31.6427 54.6771 31.1206 55.4744 30.4159 56.2038C30.7852 56.3565 31.2012 56.4371 31.6512 56.4371H32.237L31.596 58.0655C31.3838 58.1461 31.1291 58.1885 30.8362 58.1885C30.0423 58.1885 29.3207 57.9383 28.6627 57.4421C27.8009 57.9383 26.9052 58.1885 25.9713 58.1885C25.0077 58.1885 24.2054 57.9129 23.5728 57.3658C22.9403 56.8187 22.6219 56.1317 22.6219 55.309C22.6219 54.499 22.9233 53.812 23.5304 53.2437C24.1374 52.6754 25.0204 52.3107 26.1836 52.1453C26.1751 52.0011 26.1708 51.8612 26.1708 51.7297C26.1708 50.7077 26.4552 49.9062 27.0241 49.3252C27.5929 48.7442 28.3485 48.4558 29.2909 48.4558C29.9744 48.4558 30.5348 48.6466 30.972 49.0241C31.4092 49.4015 31.6257 49.885 31.6257 50.4744C31.6257 51.8739 30.5008 52.7687 28.2552 53.1547C28.4716 53.9859 28.7646 54.6729 29.1339 55.2115C29.6008 54.8128 29.9404 54.3463 30.1527 53.8077ZM26.4255 53.5575C25.2836 53.7738 24.7148 54.3039 24.7148 55.1478C24.7148 55.5974 24.8676 55.9663 25.1732 56.2547C25.4789 56.5431 25.8694 56.6873 26.3449 56.6873C26.7354 56.6873 27.1472 56.5813 27.5844 56.3692C27.0071 55.4617 26.625 54.5244 26.4255 53.5575ZM28.0344 51.8188C28.7094 51.6916 29.2273 51.5219 29.5881 51.3057C29.9489 51.0894 30.1272 50.8052 30.1272 50.4448C30.1272 50.1988 30.0381 49.9995 29.864 49.8426C29.6857 49.6857 29.4565 49.6093 29.1763 49.6093C28.7943 49.6093 28.4971 49.7408 28.2806 50.008C28.0641 50.2709 27.9538 50.6398 27.9538 51.1106C27.9538 51.3735 27.9792 51.611 28.0344 51.8188Z" fill="black"/>
<path d="M44.085 48.8036L43.7539 50.555C43.0025 50.326 42.2342 50.2073 41.4573 50.2073C40.1753 50.2073 39.1777 50.572 38.4688 51.3057C37.7599 52.0393 37.4033 52.9002 37.4033 53.8926C37.4033 54.6644 37.6495 55.2836 38.1377 55.7416C38.6258 56.1996 39.2881 56.4328 40.1159 56.4328C41.1347 56.4328 42.2851 56.0639 43.5671 55.326L43.2742 57.4379C42.145 57.9341 41.0328 58.1843 39.9376 58.1843C38.5622 58.1843 37.4457 57.7814 36.5925 56.9841C35.7392 56.1826 35.3147 55.1351 35.3147 53.8459C35.3147 52.2641 35.892 50.9706 37.0424 49.9655C38.1929 48.9562 39.6829 48.4558 41.5082 48.4558C42.3063 48.4558 43.1681 48.5703 44.085 48.8036Z" fill="black"/>
<path d="M50.1682 51.6492C51.0894 51.6492 51.8407 51.9248 52.4266 52.4719C53.0124 53.0232 53.301 53.7357 53.301 54.6178C53.301 55.6228 52.9529 56.4668 52.2652 57.1538C51.5733 57.8408 50.7243 58.1843 49.714 58.1843C48.8182 58.1843 48.0626 57.8917 47.4471 57.3022C46.8316 56.7127 46.5259 55.996 46.5259 55.1436C46.5259 54.1894 46.8825 53.3667 47.5999 52.6797C48.3131 51.9927 49.1706 51.6492 50.1682 51.6492ZM49.7267 56.6576C50.2021 56.6576 50.5927 56.4413 50.8941 56.0045C51.1955 55.5677 51.3483 55.0885 51.3483 54.5626C51.3483 54.147 51.2337 53.812 51.0002 53.5575C50.771 53.3031 50.4653 53.1759 50.0833 53.1759C49.5824 53.1759 49.1833 53.4006 48.8989 53.8502C48.6102 54.2997 48.4659 54.7704 48.4659 55.2581C48.4659 55.6822 48.5933 56.0215 48.848 56.2802C49.1027 56.5304 49.3956 56.6576 49.7267 56.6576Z" fill="black"/>
<path d="M59.4819 48.5789L58.1404 58.0656H56.2683L57.6013 48.5789H59.4819Z" fill="black"/>
<path d="M65.0471 48.5789L63.7057 58.0656H61.8336L63.1666 48.5789H65.0471Z" fill="black"/>
<path d="M73.4609 55.1776H69.3304C69.2837 55.6738 69.3983 56.0682 69.67 56.3608C69.9417 56.6534 70.311 56.8019 70.778 56.8019C71.2959 56.8019 72.0727 56.5856 73.117 56.1573L72.7859 57.7306C71.9666 58.036 71.2322 58.1844 70.5912 58.1844C69.6361 58.1844 68.872 57.9045 68.3031 57.3489C67.73 56.7934 67.4456 56.047 67.4456 55.1183C67.4456 54.1556 67.7767 53.3371 68.4432 52.6586C69.1097 51.9843 69.9162 51.645 70.8629 51.645C71.6822 51.645 72.3402 51.8867 72.8284 52.3744C73.3208 52.8621 73.567 53.5025 73.567 54.2998C73.5628 54.5839 73.5288 54.8765 73.4609 55.1776ZM69.513 54.092H71.7204C71.7331 54.0156 71.7416 53.9393 71.7416 53.863C71.7416 53.5873 71.6567 53.3626 71.4912 53.1929C71.3256 53.0233 71.1006 52.9385 70.8204 52.9385C70.2134 52.9385 69.7804 53.3244 69.513 54.092Z" fill="black"/>
<path d="M82.2736 51.874L82.0359 53.5661C81.7048 53.4474 81.4713 53.371 81.3397 53.3371C81.2039 53.3032 80.9831 53.2862 80.669 53.2862C80.0322 53.2862 79.5016 53.4728 79.0729 53.846C78.6441 54.2192 78.4276 54.6772 78.4276 55.2158C78.4276 55.6738 78.5719 56.0258 78.8606 56.2803C79.1493 56.5347 79.5526 56.6577 80.0747 56.6577C80.5841 56.6577 81.1784 56.5177 81.8704 56.2421L81.6454 57.9554C81.0086 58.1081 80.3634 58.1844 79.7011 58.1844C78.7545 58.1844 77.9819 57.9003 77.3833 57.332C76.7848 56.7637 76.4876 56.0343 76.4876 55.1437C76.4876 54.1598 76.8782 53.3286 77.655 52.6543C78.4361 51.98 79.3955 51.645 80.5374 51.645C81.1954 51.6493 81.777 51.7214 82.2736 51.874Z" fill="black"/>
<path d="M88.3313 50.4194L88.0681 51.7511H89.4605L89.21 53.1421H87.8262L87.4611 55.1861C87.4314 55.3643 87.4144 55.5254 87.4144 55.6738C87.4144 56.2294 87.6012 56.5093 87.9747 56.5093C88.1997 56.5093 88.5606 56.3821 89.0572 56.1276V57.7858C88.5054 58.0529 87.9662 58.1887 87.4399 58.1887C86.8286 58.1887 86.3446 57.9936 85.9965 57.6077C85.6442 57.2217 85.4701 56.7213 85.4701 56.1022C85.4701 55.9113 85.4871 55.7247 85.5253 55.5466L85.9668 53.1421H84.6891L84.9268 51.7511H86.2045L86.4295 50.4194H88.3313Z" fill="black"/>
<path d="M33.086 21.2593H29.1084V23.1719H33.086V21.2593Z" fill="black"/>
</g>
<path d="M137.032 43.536C137.488 43.536 137.848 43.668 138.112 43.932C138.4 44.196 138.544 44.556 138.544 45.012V53.436C138.544 54.252 138.424 54.84 138.184 55.2C137.968 55.56 137.524 55.848 136.852 56.064C135.892 56.448 134.752 56.748 133.432 56.964C132.112 57.18 130.804 57.288 129.508 57.288C126.94 57.288 124.72 56.772 122.848 55.74C120.976 54.708 119.548 53.22 118.564 51.276C117.58 49.332 117.088 47.004 117.088 44.292C117.088 41.628 117.58 39.324 118.564 37.38C119.548 35.436 120.952 33.948 122.776 32.916C124.624 31.86 126.784 31.332 129.256 31.332C130.936 31.332 132.484 31.584 133.9 32.088C135.34 32.568 136.564 33.276 137.572 34.212C138.052 34.596 138.292 35.076 138.292 35.652C138.292 36.084 138.172 36.456 137.932 36.768C137.692 37.056 137.404 37.2 137.068 37.2C136.852 37.2 136.66 37.164 136.492 37.092C136.324 37.02 136.108 36.9 135.844 36.732C134.668 35.868 133.6 35.268 132.64 34.932C131.68 34.572 130.576 34.392 129.328 34.392C126.592 34.392 124.504 35.244 123.064 36.948C121.624 38.628 120.904 41.076 120.904 44.292C120.904 47.58 121.636 50.076 123.1 51.78C124.588 53.46 126.76 54.3 129.616 54.3C131.536 54.3 133.384 54.012 135.16 53.436V46.344H130.444C129.964 46.344 129.58 46.224 129.292 45.984C129.028 45.72 128.896 45.372 128.896 44.94C128.896 44.508 129.028 44.172 129.292 43.932C129.58 43.668 129.964 43.536 130.444 43.536H137.032ZM152.927 39.072C154.079 39 154.655 39.492 154.655 40.548C154.655 41.076 154.523 41.472 154.259 41.736C153.995 42 153.539 42.156 152.891 42.204L151.811 42.312C150.299 42.456 149.171 42.984 148.427 43.896C147.707 44.808 147.347 45.912 147.347 47.208V55.452C147.347 56.028 147.179 56.46 146.843 56.748C146.507 57.036 146.075 57.18 145.547 57.18C145.019 57.18 144.575 57.036 144.215 56.748C143.879 56.46 143.711 56.028 143.711 55.452V40.8C143.711 40.248 143.879 39.828 144.215 39.54C144.575 39.228 145.019 39.072 145.547 39.072C146.027 39.072 146.423 39.228 146.735 39.54C147.071 39.828 147.239 40.236 147.239 40.764V42.492C147.719 41.436 148.415 40.632 149.327 40.08C150.239 39.528 151.271 39.204 152.423 39.108L152.927 39.072ZM164.175 57.252C162.447 57.252 160.923 56.88 159.603 56.136C158.307 55.392 157.299 54.336 156.579 52.968C155.883 51.576 155.535 49.968 155.535 48.144C155.535 46.296 155.883 44.688 156.579 43.32C157.299 41.928 158.307 40.86 159.603 40.116C160.923 39.372 162.447 39 164.175 39C165.903 39 167.415 39.372 168.711 40.116C170.031 40.86 171.039 41.928 171.735 43.32C172.455 44.688 172.815 46.296 172.815 48.144C172.815 49.968 172.455 51.576 171.735 52.968C171.039 54.336 170.031 55.392 168.711 56.136C167.415 56.88 165.903 57.252 164.175 57.252ZM164.175 54.372C165.783 54.372 167.007 53.844 167.847 52.788C168.711 51.732 169.143 50.184 169.143 48.144C169.143 46.128 168.711 44.592 167.847 43.536C166.983 42.456 165.759 41.916 164.175 41.916C162.591 41.916 161.367 42.456 160.503 43.536C159.639 44.592 159.207 46.128 159.207 48.144C159.207 50.184 159.627 51.732 160.467 52.788C161.331 53.844 162.567 54.372 164.175 54.372ZM184.388 57.252C182.684 57.252 181.184 56.88 179.888 56.136C178.616 55.392 177.62 54.336 176.9 52.968C176.204 51.6 175.856 50.016 175.856 48.216C175.856 46.392 176.216 44.784 176.936 43.392C177.68 42 178.712 40.92 180.032 40.152C181.352 39.384 182.864 39 184.568 39C185.48 39 186.392 39.132 187.304 39.396C188.24 39.66 189.068 40.02 189.788 40.476C190.556 41.004 190.94 41.616 190.94 42.312C190.94 42.72 190.832 43.068 190.616 43.356C190.4 43.62 190.124 43.752 189.788 43.752C189.572 43.752 189.356 43.704 189.14 43.608C188.924 43.488 188.648 43.32 188.312 43.104C187.712 42.72 187.148 42.432 186.62 42.24C186.116 42.024 185.504 41.916 184.784 41.916C183.152 41.916 181.88 42.468 180.968 43.572C180.08 44.676 179.636 46.212 179.636 48.18C179.636 50.148 180.08 51.672 180.968 52.752C181.856 53.808 183.116 54.336 184.748 54.336C185.468 54.336 186.104 54.228 186.656 54.012C187.208 53.796 187.772 53.508 188.348 53.148C188.612 52.98 188.876 52.836 189.14 52.716C189.404 52.596 189.644 52.536 189.86 52.536C190.196 52.536 190.472 52.68 190.688 52.968C190.904 53.232 191.012 53.568 191.012 53.976C191.012 54.312 190.916 54.624 190.724 54.912C190.556 55.176 190.256 55.452 189.824 55.74C189.104 56.22 188.264 56.592 187.304 56.856C186.344 57.12 185.372 57.252 184.388 57.252ZM208.018 52.572C208.354 52.572 208.63 52.704 208.846 52.968C209.062 53.232 209.17 53.568 209.17 53.976C209.17 54.672 208.738 55.26 207.874 55.74C207.034 56.22 206.11 56.592 205.102 56.856C204.118 57.12 203.17 57.252 202.258 57.252C199.474 57.252 197.278 56.448 195.67 54.84C194.062 53.208 193.258 50.988 193.258 48.18C193.258 46.38 193.606 44.784 194.302 43.392C195.022 42 196.018 40.92 197.29 40.152C198.586 39.384 200.05 39 201.682 39C204.034 39 205.894 39.756 207.262 41.268C208.63 42.78 209.314 44.82 209.314 47.388C209.314 48.348 208.882 48.828 208.018 48.828H196.894C197.134 52.548 198.922 54.408 202.258 54.408C203.146 54.408 203.914 54.288 204.562 54.048C205.21 53.808 205.894 53.496 206.614 53.112C206.686 53.064 206.878 52.968 207.19 52.824C207.526 52.656 207.802 52.572 208.018 52.572ZM201.754 41.664C200.362 41.664 199.246 42.108 198.406 42.996C197.566 43.884 197.062 45.132 196.894 46.74H206.182C206.11 45.108 205.69 43.86 204.922 42.996C204.178 42.108 203.122 41.664 201.754 41.664ZM222.537 39.072C223.689 39 224.265 39.492 224.265 40.548C224.265 41.076 224.133 41.472 223.869 41.736C223.605 42 223.149 42.156 222.501 42.204L221.421 42.312C219.909 42.456 218.781 42.984 218.037 43.896C217.317 44.808 216.957 45.912 216.957 47.208V55.452C216.957 56.028 216.789 56.46 216.453 56.748C216.117 57.036 215.685 57.18 215.157 57.18C214.629 57.18 214.185 57.036 213.825 56.748C213.489 56.46 213.321 56.028 213.321 55.452V40.8C213.321 40.248 213.489 39.828 213.825 39.54C214.185 39.228 214.629 39.072 215.157 39.072C215.637 39.072 216.033 39.228 216.345 39.54C216.681 39.828 216.849 40.236 216.849 40.764V42.492C217.329 41.436 218.025 40.632 218.937 40.08C219.849 39.528 220.881 39.204 222.033 39.108L222.537 39.072ZM232.449 57.252C230.001 57.252 227.997 56.748 226.437 55.74C226.005 55.476 225.693 55.2 225.501 54.912C225.333 54.624 225.249 54.3 225.249 53.94C225.249 53.556 225.357 53.232 225.573 52.968C225.789 52.704 226.065 52.572 226.401 52.572C226.713 52.572 227.205 52.764 227.877 53.148C228.597 53.532 229.293 53.844 229.965 54.084C230.661 54.324 231.525 54.444 232.557 54.444C233.709 54.444 234.609 54.24 235.257 53.832C235.905 53.424 236.229 52.848 236.229 52.104C236.229 51.624 236.097 51.24 235.833 50.952C235.593 50.664 235.161 50.412 234.537 50.196C233.913 49.956 232.989 49.704 231.765 49.44C229.653 48.984 228.129 48.372 227.193 47.604C226.281 46.812 225.825 45.744 225.825 44.4C225.825 43.368 226.125 42.444 226.725 41.628C227.325 40.788 228.153 40.14 229.209 39.684C230.265 39.228 231.465 39 232.809 39C233.769 39 234.705 39.132 235.617 39.396C236.529 39.636 237.333 39.996 238.029 40.476C238.821 41.004 239.217 41.616 239.217 42.312C239.217 42.696 239.097 43.02 238.857 43.284C238.641 43.548 238.377 43.68 238.065 43.68C237.849 43.68 237.633 43.632 237.417 43.536C237.201 43.44 236.913 43.284 236.553 43.068C235.905 42.684 235.293 42.384 234.717 42.168C234.165 41.952 233.469 41.844 232.629 41.844C231.621 41.844 230.805 42.06 230.181 42.492C229.581 42.924 229.281 43.512 229.281 44.256C229.281 44.928 229.557 45.456 230.109 45.84C230.685 46.2 231.753 46.548 233.313 46.884C234.921 47.22 236.181 47.604 237.093 48.036C238.005 48.468 238.653 49.008 239.037 49.656C239.445 50.28 239.649 51.084 239.649 52.068C239.649 53.628 238.989 54.888 237.669 55.848C236.373 56.784 234.633 57.252 232.449 57.252Z" fill="black"/>
<defs>
<clipPath id="clip0">
<rect width="111" height="81" fill="white"/>
</clipPath>
</defs>
</svg>
